<?xml version="1.0" encoding="UTF-8"?>
<svg version="1.1" xmlns="http://www.w3.org/2000/svg" width="512" height="512" viewBox="330 110 720 560">
<path d="M0 0 C0.90878906 0.70640625 1.81757812 1.4128125 2.75390625 2.140625 C3.27355957 2.53443359 3.79321289 2.92824219 4.32861328 3.33398438 C22.17880776 16.97946638 34.47423751 35.99917917 41.75390625 57.140625 C42.01365234 57.89214844 42.27339844 58.64367187 42.54101562 59.41796875 C46.3834713 71.13301357 47.22365363 82.71101491 47.25390625 94.953125 C47.25848846 95.63842285 47.26307068 96.3237207 47.26779175 97.02978516 C47.35018715 128.09610847 35.77747322 155.53265642 14.44140625 177.890625 C-6.11261454 197.72496719 -33.90487734 207.72292188 -62.18359375 208.578125 C-80.58041381 208.13615935 -96.02051802 202.30303236 -112.24609375 194.140625 C-110.68477393 186.45728797 -108.463481 179.05638254 -106.12109375 171.578125 C-105.74855469 170.37865234 -105.37601563 169.17917969 -104.9921875 167.94335938 C-104.08003449 165.00809775 -103.16459847 162.07390397 -102.24609375 159.140625 C-99.29971068 160.28575619 -96.46301582 161.48236114 -93.6796875 162.98046875 C-77.47476271 171.53222277 -61.09554931 175.31780294 -42.93359375 170.578125 C-32.00959935 166.9538091 -21.85495961 161.84329446 -13.24609375 154.140625 C-12.4984375 153.48578125 -11.75078125 152.8309375 -10.98046875 152.15625 C0.36803835 141.57975019 6.55500218 127.83678926 10.75390625 113.140625 C-4.42609375 113.470625 -19.60609375 113.800625 -35.24609375 114.140625 C-39.27349397 123.76401932 -39.27349397 123.76401932 -42.96484375 133.48046875 C-43.42639766 134.74048575 -43.88865659 136.00024469 -44.3515625 137.25976562 C-45.05578346 139.18169171 -45.7556032 141.10476011 -46.44384766 143.0324707 C-47.12565443 144.93670399 -47.8249144 146.8337619 -48.52734375 148.73046875 C-48.93017578 149.84284912 -49.33300781 150.95522949 -49.74804688 152.10131836 C-51.45305754 155.56052268 -53.31519193 157.65087677 -56.24609375 160.140625 C-60.27606051 161.31297897 -62.39236779 161.46931492 -66.3203125 159.95703125 C-69.72259001 157.84480289 -70.33846951 156.8079963 -71.62109375 153.078125 C-72.02070312 151.92570313 -72.4203125 150.77328125 -72.83203125 149.5859375 C-73.30733412 148.10542856 -73.77817471 146.62348417 -74.24609375 145.140625 C-74.54805664 144.19541992 -74.85001953 143.25021484 -75.16113281 142.27636719 C-78.86650151 130.6169519 -82.37933809 118.91048764 -85.58276367 107.10327148 C-87.23946911 101.03488174 -89.18227724 95.08264513 -91.24609375 89.140625 C-95.1296071 98.01409492 -97.92862453 107.25084466 -100.82739258 116.47827148 C-101.67435055 119.17370859 -102.5270943 121.86725913 -103.38085938 124.56054688 C-105.95864539 132.7148224 -108.48825045 140.87861622 -110.87890625 149.08984375 C-113.01054374 156.40357466 -115.2625718 163.66653804 -117.68359375 170.890625 C-118.04001953 172.01210938 -118.39644531 173.13359375 -118.76367188 174.2890625 C-120.88526975 180.58251037 -122.4415671 184.66861565 -128.24609375 188.140625 C-130.37109375 188.8046875 -130.37109375 188.8046875 -132.24609375 188.765625 C-132.86484375 188.77851563 -133.48359375 188.79140625 -134.12109375 188.8046875 C-139.57094337 187.10160949 -142.37657178 183.28672651 -144.96484375 178.46484375 C-145.9035148 176.59169964 -146.82993919 174.71238428 -147.74609375 172.828125 C-152.59496207 163.17914014 -157.80679511 153.83022289 -163.34960938 144.56323242 C-166.26092266 139.66550114 -169.07183285 134.72779747 -171.72265625 129.68359375 C-172.23135254 128.71832764 -172.74004883 127.75306152 -173.26416016 126.75854492 C-174.3445558 123.87811666 -174.4395623 122.92202881 -173.24609375 120.140625 C-172.15795898 118.28466797 -172.15795898 118.28466797 -170.8046875 116.3828125 C-170.30678711 115.67890381 -169.80888672 114.97499512 -169.29589844 114.24975586 C-168.76383789 113.51249268 -168.23177734 112.77522949 -167.68359375 112.015625 C-167.14508789 111.26095947 -166.60658203 110.50629395 -166.05175781 109.72875977 C-161.96749757 104.04379586 -157.73490135 98.51399175 -153.24609375 93.140625 C-150.49774614 95.5955346 -148.90864029 98.26404596 -147.13671875 101.48046875 C-146.25113281 103.07665039 -146.25113281 103.07665039 -145.34765625 104.70507812 C-144.73664063 105.81818359 -144.125625 106.93128906 -143.49609375 108.078125 C-142.2940707 110.25451522 -141.09094741 112.43029815 -139.88671875 114.60546875 C-139.29310547 115.67780762 -138.69949219 116.75014648 -138.08789062 117.85498047 C-135.20916035 122.99044602 -132.23519854 128.0686379 -129.24609375 133.140625 C-127.23829645 130.12892905 -126.43622629 127.83675025 -125.42382812 124.38769531 C-123.19642048 116.94955202 -120.81411082 109.56756124 -118.40234375 102.1875 C-118.17932083 101.5045713 -117.95629791 100.82164261 -117.72651672 100.1180191 C-116.54969038 96.51507539 -115.37138267 92.91262003 -114.19189453 89.31054688 C-112.98435 85.62167237 -111.78236308 81.93101109 -110.5815506 78.23994064 C-109.64612792 75.36823108 -108.70645589 72.4979246 -107.76567078 69.62796783 C-107.32078436 68.26830249 -106.87747413 66.90812023 -106.43586731 65.54738617 C-100.25148151 46.50411772 -100.25148151 46.50411772 -96.49609375 42.078125 C-93.11761563 40.67042579 -89.76115861 40.14567182 -86.24609375 41.140625 C-81.08535393 45.06812867 -79.8405369 49.39218247 -78.24609375 55.390625 C-77.99609619 56.27524414 -77.74609863 57.15986328 -77.48852539 58.07128906 C-76.9757525 59.88689216 -76.46930718 61.70429436 -75.96923828 63.5234375 C-74.9186201 67.32580986 -73.80239262 71.10787172 -72.68359375 74.890625 C-72.48193604 75.57898438 -72.28027832 76.26734375 -72.07250977 76.9765625 C-70.65773418 81.79668985 -69.18676997 86.59738046 -67.68359375 91.390625 C-67.47831055 92.04683838 -67.27302734 92.70305176 -67.06152344 93.37915039 C-66.06961832 96.54272655 -65.06450166 99.70132006 -64.04296875 102.85546875 C-63.676875 104.00144531 -63.31078125 105.14742188 -62.93359375 106.328125 C-62.60746094 107.33230469 -62.28132813 108.33648437 -61.9453125 109.37109375 C-61.25991486 112.08588106 -61.10859913 114.35508581 -61.24609375 117.140625 C-60.58609375 117.140625 -59.92609375 117.140625 -59.24609375 117.140625 C-59.08173828 115.87605469 -59.08173828 115.87605469 -58.9140625 114.5859375 C-58.18322354 110.8163471 -57.01920947 107.56557291 -55.55859375 104.015625 C-55.08035156 102.81679688 -54.60210938 101.61796875 -54.109375 100.3828125 C-51.99180775 96.69815669 -50.18305054 94.65423525 -46.24609375 93.140625 C-41.81760417 92.59133802 -37.42899874 92.6756678 -32.97265625 92.75 C-31.05433487 92.75848969 -31.05433487 92.75848969 -29.09725952 92.76715088 C-25.71354233 92.78570652 -22.33092283 92.82157974 -18.94750977 92.8659668 C-15.48854 92.90704333 -12.02945639 92.92518813 -8.5703125 92.9453125 C-1.79527171 92.98936247 4.97925395 93.05626346 11.75390625 93.140625 C11.61180743 90.8996359 11.46457887 88.65897167 11.31518555 86.41845703 C11.23374802 85.1706546 11.15231049 83.92285217 11.06840515 82.63723755 C9.72713411 67.72492742 2.27342707 53.41086229 -7.24609375 42.140625 C-7.69339844 41.54894531 -8.14070313 40.95726562 -8.6015625 40.34765625 C-19.10327456 26.88945047 -36.63200246 18.68748427 -53.24609375 16.140625 C-77.07148206 13.63325577 -98.25717753 22.57305828 -116.6640625 37.19921875 C-121.35233103 41.01833459 -125.88927793 44.94517272 -130.24609375 49.140625 C-130.71998535 49.59405273 -131.19387695 50.04748047 -131.68212891 50.51464844 C-138.7537684 57.31159503 -145.24646887 64.36723461 -151.24609375 72.140625 C-151.8184375 72.87958008 -152.39078125 73.61853516 -152.98046875 74.37988281 C-160.04891013 83.52791137 -167.01581663 92.74060797 -173.74609375 102.140625 C-184.32995112 116.91233961 -195.18944319 131.53000615 -207.24609375 145.140625 C-207.71966309 145.6759082 -208.19323242 146.21119141 -208.68115234 146.76269531 C-227.62559362 168.05881732 -250.95928652 188.88792965 -280.24609375 193.140625 C-305.75559724 194.55294955 -329.42771403 192.03976476 -349.7734375 175.02734375 C-352.27585236 172.74394089 -354.76507747 170.44725675 -357.24609375 168.140625 C-357.86742187 167.59664062 -358.48875 167.05265625 -359.12890625 166.4921875 C-376.34945101 150.71336276 -384.52022386 124.14669206 -385.5703125 101.48828125 C-386.05953491 83.55980433 -383.73633711 66.56476198 -376.24609375 50.140625 C-375.74335938 49.01527344 -375.240625 47.88992188 -374.72265625 46.73046875 C-363.07791727 22.04690232 -342.6001997 2.05276658 -316.90966797 -7.75097656 C-303.11602548 -12.63032288 -290.17827078 -15.20693099 -275.49609375 -15.109375 C-274.31660156 -15.11710938 -273.13710938 -15.12484375 -271.921875 -15.1328125 C-265.93920886 -15.11935318 -260.89342363 -14.83370537 -255.24609375 -12.859375 C-253.70813767 -12.56820856 -252.16652233 -12.29534497 -250.62109375 -12.046875 C-231.40311941 -8.15718004 -214.87865935 3.44425644 -201.24609375 17.140625 C-200.51261719 17.82640625 -199.77914062 18.5121875 -199.0234375 19.21875 C-193.79864418 24.17173326 -188.60418399 29.74016241 -185.24609375 36.140625 C-185.19122488 41.00043931 -188.28452104 44.13930792 -191.24609375 47.703125 C-192.24338121 48.93523266 -193.23945336 50.16832491 -194.234375 51.40234375 C-194.73662598 52.02157715 -195.23887695 52.64081055 -195.75634766 53.27880859 C-198.04764512 56.14236718 -200.24499208 59.07324107 -202.43359375 62.015625 C-203.16964844 63.00304687 -203.90570312 63.99046875 -204.6640625 65.0078125 C-205.44716797 66.06355469 -205.44716797 66.06355469 -206.24609375 67.140625 C-210.23586227 65.81070216 -211.45211928 63.24049745 -213.68359375 59.890625 C-227.20420962 40.34013685 -244.52132116 25.2501344 -268.24609375 20.140625 C-278.43836666 18.81419046 -288.52335235 19.82832543 -298.24609375 23.140625 C-299.09300781 23.4190625 -299.93992187 23.6975 -300.8125 23.984375 C-320.36507305 31.08327476 -334.55105486 46.28243382 -343.62109375 64.578125 C-351.47671961 82.84245512 -351.74358321 103.51954382 -344.51464844 122.01171875 C-337.99500843 137.52764189 -327.85308078 148.65282535 -312.44921875 155.4140625 C-300.41628459 159.38237057 -284.50107445 158.78674942 -273.24609375 153.140625 C-272.446875 152.80160156 -271.64765625 152.46257812 -270.82421875 152.11328125 C-253.1210389 144.19195396 -238.91014911 128.15499413 -227.24609375 113.140625 C-226.36686456 112.02787147 -225.48660407 110.91593226 -224.60546875 109.8046875 C-221.80228596 106.26296816 -219.02157691 102.70407165 -216.24609375 99.140625 C-215.44429687 98.11324219 -214.6425 97.08585937 -213.81640625 96.02734375 C-208.84428223 89.61248866 -203.99250653 83.11622185 -199.18359375 76.578125 C-198.58015137 75.75787842 -197.97670898 74.93763184 -197.35498047 74.0925293 C-194.13453254 69.71355948 -194.13453254 69.71355948 -190.92089844 65.32958984 C-185.03312495 57.29042101 -178.75613712 49.67595042 -172.24609375 42.140625 C-171.62992188 41.42261719 -171.01375 40.70460938 -170.37890625 39.96484375 C-168.68501644 38.00755003 -166.97050177 36.07109435 -165.24609375 34.140625 C-164.41464844 33.20476562 -163.58320312 32.26890625 -162.7265625 31.3046875 C-121.91628345 -14.22450658 -54.36501041 -39.28509998 0 0 Z " fill="#258082" transform="translate(865.24609375,239.859375)"/>
<path d="M0 0 C13.93429409 11.82303741 19.66637528 33.75092892 23 51 C23.14421387 51.74378906 23.28842773 52.48757813 23.43701172 53.25390625 C25.84510307 65.88758234 27.2189222 78.04430385 27.25 90.9375 C27.25167175 91.59819489 27.25334351 92.25888977 27.25506592 92.93960571 C27.25672498 104.0730721 26.62542118 115.10144099 25.625 126.1875 C25.56187622 126.89534637 25.49875244 127.60319275 25.43371582 128.33248901 C24.6495223 136.95422198 23.56581719 145.48247708 22 154 C15.09312343 152.11879937 8.69429363 149.73453233 2.25 146.625 C1.35531006 146.19509766 0.46062012 145.76519531 -0.46118164 145.32226562 C-21.41649931 135.04772927 -40.54192347 122.43955354 -58 107 C-58.53431641 106.52884766 -59.06863281 106.05769531 -59.61914062 105.57226562 C-65.84015312 100.05835733 -71.70534058 94.42589723 -77 88 C-78.18722656 86.60974609 -78.18722656 86.60974609 -79.3984375 85.19140625 C-108 51.60623816 -108 51.60623816 -108 40 C-107.09459473 39.970271 -107.09459473 39.970271 -106.17089844 39.93994141 C-91.170655 39.51284424 -91.170655 39.51284424 -76.33984375 37.40234375 C-75.18162109 37.20318359 -75.18162109 37.20318359 -74 37 C-72.74316406 36.75830078 -72.74316406 36.75830078 -71.4609375 36.51171875 C-69 37 -69 37 -66.82421875 39.9296875 C-66.09608347 41.23605774 -65.38475334 42.55188928 -64.6875 43.875 C-63.90531878 45.26487334 -63.1175139 46.65159628 -62.32421875 48.03515625 C-61.93411621 48.71594238 -61.54401367 49.39672852 -61.14208984 50.09814453 C-58.54579677 54.42159964 -55.30236944 58.2067378 -52 62 C-51.29101562 62.81855469 -50.58203125 63.63710938 -49.8515625 64.48046875 C-47.60421751 67.02351703 -45.31698369 69.52028501 -43 72 C-41.84371094 73.2375 -41.84371094 73.2375 -40.6640625 74.5 C-31.44466542 84.04759568 -21.07823008 91.46130319 -9.9375 98.5625 C-9.11580322 99.08763184 -8.29410645 99.61276367 -7.44750977 100.15380859 C-6.66947998 100.64059082 -5.8914502 101.12737305 -5.08984375 101.62890625 C-4.39753662 102.06275635 -3.70522949 102.49660645 -2.99194336 102.94360352 C-0.99470547 104.00280787 0.79165741 104.55462258 3 105 C3.12503906 103.84757812 3.25007812 102.69515625 3.37890625 101.5078125 C3.91763138 97.19990506 4.87537015 93.07885496 5.9375 88.875 C12.8554997 60.06146871 10.13930121 33.79485201 1.171875 5.796875 C0 2 0 2 0 0 Z " fill="#1F6539" transform="translate(667,406)"/>
<path d="M0 0 C0.85946732 0.02064514 1.71893463 0.04129028 2.60444641 0.06256104 C3.92984184 0.07105072 3.92984184 0.07105072 5.28201294 0.07971191 C8.10488509 0.10210737 10.92648904 0.15230876 13.74897766 0.20318604 C15.66237079 0.22324698 17.57578381 0.24149845 19.48921204 0.25787354 C24.18045608 0.30198246 28.87075184 0.37103119 33.56147766 0.45318604 C26.83210729 17.60216896 14.25113373 32.3536113 1.56147766 45.45318604 C1.07679016 45.9583374 0.59210266 46.46348877 0.09272766 46.98394775 C-6.67558552 54.0188514 -13.67394239 60.50809894 -21.43852234 66.45318604 C-22.42594421 67.21888916 -23.41336609 67.98459229 -24.43070984 68.77349854 C-43.15034953 82.91441942 -66.36793656 96.40733862 -89.43852234 101.45318604 C-89.22691898 98.60210915 -88.99827098 95.75691567 -88.73149109 92.91021729 C-88.44683772 89.4364674 -88.4479211 86.01181026 -88.48930359 82.52740479 C-88.3851846 66.80785917 -88.3851846 66.80785917 -85.00346375 62.71734619 C-81.25594519 59.94067662 -76.98372067 58.55896895 -72.56938171 57.17779541 C-57.73860439 52.13451549 -43.82895814 39.96677414 -32.55180359 29.39068604 C-30.43852234 27.45318604 -30.43852234 27.45318604 -27.87211609 25.42584229 C-25.72266188 23.68350782 -23.98045699 21.98580154 -22.18852234 19.89068604 C-21.60070984 19.20361572 -21.01289734 18.51654541 -20.40727234 17.80865479 C-13.77269978 10.47967175 -13.77269978 10.47967175 -8.37773132 2.32037354 C-5.67202814 -0.28484086 -3.65532307 -0.00137941 0 0 Z " fill="#176B94" transform="translate(791.4385223388672,458.54681396484375)"/>
<path d="M0 0 C0.90878906 0.70640625 1.81757812 1.4128125 2.75390625 2.140625 C3.27355957 2.53443359 3.79321289 2.92824219 4.32861328 3.33398438 C22.17880776 16.97946638 34.47423751 35.99917917 41.75390625 57.140625 C42.01365234 57.89214844 42.27339844 58.64367187 42.54101562 59.41796875 C46.3834713 71.13301357 47.22365363 82.71101491 47.25390625 94.953125 C47.25848846 95.63842285 47.26307068 96.3237207 47.26779175 97.02978516 C47.35018715 128.09610847 35.77747322 155.53265642 14.44140625 177.890625 C5.40895486 186.63047585 -4.83470754 192.89755566 -16.24609375 198.140625 C-17.73109375 197.150625 -17.73109375 197.150625 -19.24609375 196.140625 C-14.73628983 193.38463371 -14.73628983 193.38463371 -12.48828125 192.265625 C-8.30889991 190.16865318 -4.24029716 187.85653474 -0.14453125 185.6015625 C2.75390625 184.140625 2.75390625 184.140625 4.75390625 184.140625 C5.08390625 183.150625 5.41390625 182.160625 5.75390625 181.140625 C6.41390625 181.140625 7.07390625 181.140625 7.75390625 181.140625 C7.75390625 180.480625 7.75390625 179.820625 7.75390625 179.140625 C9.37365184 177.42832252 11.04980085 175.76899238 12.75390625 174.140625 C14.08421875 172.7484375 14.08421875 172.7484375 15.44140625 171.328125 C17.75390625 169.140625 17.75390625 169.140625 19.75390625 169.140625 C19.83640625 168.563125 19.91890625 167.985625 20.00390625 167.390625 C20.75390625 165.140625 20.75390625 165.140625 22.62109375 163.31640625 C24.86905034 161.02316116 26.148537 158.91759032 27.62890625 156.078125 C29.1274032 153.20946585 30.61207965 150.37329244 32.296875 147.609375 C40.01981553 134.74442521 42.41039868 119.87539829 43.75390625 105.140625 C43.85670898 104.32255371 43.95951172 103.50448242 44.06542969 102.66162109 C44.89733843 95.46340762 44.44501099 88.80885272 43.50390625 81.640625 C43.32021484 80.06474609 43.32021484 80.06474609 43.1328125 78.45703125 C42.26192712 71.48132558 40.78807888 64.86775746 38.75390625 58.140625 C38.42390625 58.140625 38.09390625 58.140625 37.75390625 58.140625 C37.63015625 57.233125 37.50640625 56.325625 37.37890625 55.390625 C36.81195543 52.44248073 36.16378377 50.72540045 34.75390625 48.140625 C33.30136611 44.82883348 31.89762757 41.57178895 30.75390625 38.140625 C30.09390625 38.140625 29.43390625 38.140625 28.75390625 38.140625 C28.42390625 35.830625 28.09390625 33.520625 27.75390625 31.140625 C27.09390625 31.140625 26.43390625 31.140625 25.75390625 31.140625 C25.48578125 30.5425 25.21765625 29.944375 24.94140625 29.328125 C23.73044697 27.09741054 22.57160699 25.89100349 20.75390625 24.140625 C18.40524053 21.3704039 16.10824203 18.61714553 13.94140625 15.703125 C3.85647353 3.88934667 -12.21120961 -6.03231358 -27.24609375 -9.859375 C-28.53864242 -10.33615735 -29.83022073 -10.81557435 -31.12109375 -11.296875 C-59.10215169 -20.5922773 -89.25557613 -15.81584199 -115.24609375 -2.859375 C-117.67545644 -1.53229031 -120.08223365 -0.17990761 -122.46875 1.22265625 C-124.24609375 2.140625 -124.24609375 2.140625 -126.24609375 2.140625 C-125.04572638 -1.46047712 -124.35729328 -1.64975624 -121.1171875 -3.3828125 C-120.25464355 -3.84437744 -119.39209961 -4.30594238 -118.50341797 -4.78149414 C-117.57287598 -5.26094482 -116.64233398 -5.74039551 -115.68359375 -6.234375 C-114.26071045 -6.97192017 -114.26071045 -6.97192017 -112.80908203 -7.72436523 C-77.55169616 -25.5428372 -32.38260066 -23.40022921 0 0 Z " fill="#30A0C3" transform="translate(865.24609375,239.859375)"/>
<path d="M0 0 C0.495 0.495 0.495 0.495 1 1 C3.32817964 1.36760731 5.6618385 1.70241581 8 2 C8 2.66 8 3.32 8 4 C9.03125 4.103125 10.0625 4.20625 11.125 4.3125 C14.99497951 4.99910927 17.58890344 6.10494636 21 8 C21.78375 8.391875 22.5675 8.78375 23.375 9.1875 C23.91125 9.455625 24.4475 9.72375 25 10 C25 10.66 25 11.32 25 12 C25.598125 12.144375 26.19625 12.28875 26.8125 12.4375 C31.583405 13.66430414 33.57564516 15.49003628 37 19 C37.99 19.66 38.98 20.32 40 21 C40 21.99 40 22.98 40 24 C40.66 24 41.32 24 42 24 C44.625 26.3125 44.625 26.3125 47 29 C47 29.99 47 30.98 47 32 C47.66 32 48.32 32 49 32 C53.15512132 39.11518563 56.70812813 46.4486167 60 54 C60.33386719 54.73734375 60.66773438 55.4746875 61.01171875 56.234375 C63.0301314 61.31486732 63.47444147 66.46717733 63.875 71.875 C63.96744995 73.00083496 63.96744995 73.00083496 64.06176758 74.14941406 C64.35389952 79.48883606 64.35389952 79.48883606 62.81274414 81.71484375 C60.36556229 83.44978856 58.79783942 83.32916482 55.81640625 83.2578125 C54.30143555 83.23654297 54.30143555 83.23654297 52.75585938 83.21484375 C51.70205078 83.18519531 50.64824219 83.15554688 49.5625 83.125 C47.48055577 83.08154628 45.39851805 83.04231531 43.31640625 83.0078125 C42.39287354 82.98348145 41.46934082 82.95915039 40.51782227 82.93408203 C38.04881473 82.88521831 38.04881473 82.88521831 35.98022461 83.62451172 C33.20758465 84.15025703 31.58350593 83.06671015 29 82 C26.00664919 81.63814773 26.00664919 81.63814773 22.82421875 81.5859375 C21.66728516 81.54726563 20.51035156 81.50859375 19.31835938 81.46875 C18.12017578 81.4378125 16.92199219 81.406875 15.6875 81.375 C14.46998047 81.33632813 13.25246094 81.29765625 11.99804688 81.2578125 C8.99884772 81.16371998 5.99965177 81.07807791 3 81 C3 80.67 3 80.34 3 80 C22.14 80 41.28 80 61 80 C59.59329793 60.30617095 54.85308351 44.21686898 42 29 C41.55269531 28.40832031 41.10539063 27.81664062 40.64453125 27.20703125 C30.16084666 13.77192813 12.60318009 5.50412509 -4 3 C-15.31438254 1.90178712 -26.01456789 3.27794603 -37 6 C-37.33 5.34 -37.66 4.68 -38 4 C-25.98647423 -0.71959941 -12.75078031 -2.07278695 0 0 Z " fill="#309EC0" transform="translate(816,253)"/>
<path d="M0 0 C1.71509766 0.01353516 1.71509766 0.01353516 3.46484375 0.02734375 C4.32207031 0.03894531 5.17929687 0.05054688 6.0625 0.0625 C6.0625 0.7225 6.0625 1.3825 6.0625 2.0625 C3.0143293 2.96644028 0.41870007 3.11477181 -2.75 3 C-7.21127179 2.96115003 -10.65808522 3.70735199 -14.9375 5.0625 C-17.22797892 5.5061763 -19.51979581 5.94297009 -21.8125 6.375 C-27.17430243 7.49393547 -31.31113552 9.0066054 -35.94140625 11.88671875 C-37.87223013 13.02405336 -39.62176472 13.700406 -41.75 14.375 C-46.75674837 16.10771775 -50.88332391 19.21782052 -55.203125 22.22265625 C-57.9375 24.0625 -57.9375 24.0625 -59.94921875 24.98046875 C-78.34800054 34.99316532 -90.57877212 59.74513994 -96.421875 78.71191406 C-96.97475072 81.2323153 -96.9980068 83.48988043 -96.9375 86.0625 C-97.60133147 89.49229593 -98.81163247 92.75995526 -99.9375 96.0625 C-100.2675 96.0625 -100.5975 96.0625 -100.9375 96.0625 C-102.40464049 75.15574796 -90.33735876 53.98246105 -77.6484375 38.21875 C-75.4866855 35.74381131 -73.25885705 33.3878802 -70.9375 31.0625 C-70.20402344 30.31742188 -69.47054687 29.57234375 -68.71484375 28.8046875 C-51.10371451 11.92858035 -24.5609667 -0.25320584 0 0 Z " fill="#367147" transform="translate(582.9375,224.9375)"/>
<path d="M0 0 C0.79680176 0.09506836 1.59360352 0.19013672 2.41455078 0.28808594 C13.13191568 1.65644621 21.64697959 5.18467215 31.1875 10.25 C31.1875 10.91 31.1875 11.57 31.1875 12.25 C32.3321875 12.4046875 32.3321875 12.4046875 33.5 12.5625 C36.37166484 13.29711194 37.41792094 13.9216065 39.1875 16.25 C39.1875 16.91 39.1875 17.57 39.1875 18.25 C39.74308594 18.47945313 40.29867187 18.70890625 40.87109375 18.9453125 C43.82706971 20.61022982 45.87276994 22.70832871 48.25 25.125 C49.53583984 26.42050781 49.53583984 26.42050781 50.84765625 27.7421875 C52.800199 29.83489609 54.53430061 31.91925988 56.1875 34.25 C55.8575 34.91 55.5275 35.57 55.1875 36.25 C54.31609375 35.27160156 53.4446875 34.29320312 52.546875 33.28515625 C43.51060298 23.28244485 34.04969107 13.20685769 21.1875 8.25 C20.06085938 7.8065625 18.93421875 7.363125 17.7734375 6.90625 C3.73202453 1.75962492 -10.57701098 1.40031799 -24.8125 6.25 C-25.65941406 6.5284375 -26.50632812 6.806875 -27.37890625 7.09375 C-45.5125191 13.67747172 -60.22158781 27.79909658 -68.69921875 44.96484375 C-70.13088685 48.03842491 -71.5066958 51.12119073 -72.8125 54.25 C-73.98307517 51.4052301 -73.85706077 50.36265716 -72.703125 47.4453125 C-72.16171875 46.43210937 -71.6203125 45.41890625 -71.0625 44.375 C-70.53140625 43.36695313 -70.0003125 42.35890625 -69.453125 41.3203125 C-68.91171875 40.30710937 -68.3703125 39.29390625 -67.8125 38.25 C-67.29171875 37.15429688 -66.7709375 36.05859375 -66.234375 34.9296875 C-64.8125 32.25 -64.8125 32.25 -62.8125 31.25 C-62.8125 30.59 -62.8125 29.93 -62.8125 29.25 C-62.1525 29.25 -61.4925 29.25 -60.8125 29.25 C-60.8125 28.59 -60.8125 27.93 -60.8125 27.25 C-60.1525 27.25 -59.4925 27.25 -58.8125 27.25 C-58.585625 26.6725 -58.35875 26.095 -58.125 25.5 C-56.48333893 22.68572387 -54.37690947 21.22262267 -51.8125 19.25 C-51.4825 18.59 -51.1525 17.93 -50.8125 17.25 C-49.8225 16.92 -48.8325 16.59 -47.8125 16.25 C-47.338125 15.755 -46.86375 15.26 -46.375 14.75 C-44.56056281 13.00814029 -43.25690923 12.67144987 -40.8125 12.25 C-40.8125 11.59 -40.8125 10.93 -40.8125 10.25 C-38.25592265 8.90411674 -35.69326095 7.57324672 -33.125 6.25 C-32.0431543 5.67765625 -32.0431543 5.67765625 -30.93945312 5.09375 C-27.04251703 3.10079638 -24.29110079 1.8413381 -19.8125 2.25 C-19.19375 1.940625 -18.575 1.63125 -17.9375 1.3125 C-12.28608635 -1.51320682 -6.05480606 -0.73617002 0 0 Z " fill="#3C764B" transform="translate(591.8125,256.75)"/>
<path d="M0 0 C1.88969722 0.01465648 3.78055606 -0.02705266 5.66796875 -0.12109375 C6.72693359 -0.16943359 7.78589844 -0.21777344 8.87695312 -0.26757812 C9.96943359 -0.32365234 11.06191406 -0.37972656 12.1875 -0.4375 C18.51474757 -0.74531204 24.84162913 -1.04547824 31.17578125 -1.16015625 C32.49896362 -1.18734741 32.49896362 -1.18734741 33.84887695 -1.21508789 C36 -1 36 -1 38 1 C39.0914076 11.18647093 34.23559164 20.25274978 28 28 C27.319375 29.1446875 27.319375 29.1446875 26.625 30.3125 C19.68210388 41.79498205 7.94358877 53.8306472 -5.29296875 57.6640625 C-5.85628906 57.77492188 -6.41960938 57.88578125 -7 58 C-7.33 57.34 -7.66 56.68 -8 56 C-7.31035156 55.64808594 -6.62070312 55.29617188 -5.91015625 54.93359375 C13.58092924 44.69342126 26.61877138 29.88487167 34 9 C34.6737349 6.66869775 35.34118149 4.3355614 36 2 C29.50335586 2.04157852 23.00757473 2.11381417 16.51147461 2.20751953 C14.30094189 2.23577019 12.09030738 2.25696425 9.87963867 2.27099609 C6.70438366 2.29236869 3.5303578 2.33899031 0.35546875 2.390625 C-1.13059624 2.39246796 -1.13059624 2.39246796 -2.64668274 2.39434814 C-3.56741074 2.41406677 -4.48813873 2.4337854 -5.43676758 2.45410156 C-6.65255241 2.46742523 -6.65255241 2.46742523 -7.89289856 2.48101807 C-10.73904003 3.18202656 -11.49659914 4.56707882 -13 7 C-13.66 6.34 -14.32 5.68 -15 5 C-13.3259827 2.20997116 -12.17336751 1.08090484 -9.1875 -0.3125 C-5.67414134 -1.07028324 -3.51495937 -0.5964796 0 0 Z " fill="#2C96B8" transform="translate(840,351)"/>
<path d="M0 0 C1.17876709 0.00201416 2.35753418 0.00402832 3.57202148 0.00610352 C23.65972015 0.23611008 23.65972015 0.23611008 31.8125 4.3125 C31.8125 4.9725 31.8125 5.6325 31.8125 6.3125 C27.56893591 5.85783242 23.33745686 5.38504151 19.109375 4.80078125 C-8.53923319 0.98601188 -34.26252224 6.20288378 -58.41015625 20.39453125 C-60.1875 21.3125 -60.1875 21.3125 -62.1875 21.3125 C-60.98713263 17.71139788 -60.29869953 17.52211876 -57.05859375 15.7890625 C-56.1960498 15.32749756 -55.33350586 14.86593262 -54.44482422 14.39038086 C-53.51428223 13.91093018 -52.58374023 13.43147949 -51.625 12.9375 C-50.2021167 12.19995483 -50.2021167 12.19995483 -48.75048828 11.44750977 C-33.19539293 3.58623407 -17.43295556 -0.08066791 0 0 Z " fill="#2E97B8" transform="translate(801.1875,220.6875)"/>
<path d="M0 0 C0.66 0.33 1.32 0.66 2 1 C2 2.32 2 3.64 2 5 C2.66 5 3.32 5 4 5 C4.10957031 5.56847656 4.21914063 6.13695312 4.33203125 6.72265625 C5.10861479 10.50455493 5.87935311 13.74905447 7.5625 17.25 C11.49731501 26.11327018 10.09073051 37.70627339 10.125 47.1875 C10.12975342 48.31140137 10.13450684 49.43530273 10.1394043 50.59326172 C10.137229 51.64916504 10.13505371 52.70506836 10.1328125 53.79296875 C10.13168457 54.7471167 10.13055664 55.70126465 10.12939453 56.68432617 C10 59 10 59 9 61 C9.061875 62.546875 9.061875 62.546875 9.125 64.125 C8.99991444 68.00265242 8.30160524 70.34326169 6.75390625 73.8125 C5.86642855 76.14470566 5.86642855 76.14470566 5.58203125 79.3203125 C4.95999654 83.25290777 3.79788584 86.27122105 2.125 89.875 C1.61195313 91.00679688 1.09890625 92.13859375 0.5703125 93.3046875 C-1 96 -1 96 -4 97 C-3.608125 95.845 -3.21625 94.69 -2.8125 93.5 C-2.20641069 91.66730138 -1.60258577 89.83385355 -1 88 C-0.59007812 86.76636719 -0.18015625 85.53273438 0.2421875 84.26171875 C0.68299722 82.90387468 1.12309769 81.54580016 1.5625 80.1875 C1.77221436 79.56101562 1.98192871 78.93453125 2.19799805 78.2890625 C5.78061296 67.08720299 6.43364149 55.74623264 6.4375 44.0625 C6.44022919 43.34299164 6.44295837 42.62348328 6.44577026 41.88217163 C6.45249062 30.05646846 5.0322456 19.28313783 1.55126953 7.93212891 C0.80591786 5.31976703 0.37297512 2.68799311 0 0 Z " fill="#A8F3F9" transform="translate(905,291)"/>
<path d="M0 0 C0.99 1.485 0.99 1.485 2 3 C1 4.66666667 0 6.33333333 -1 8 C-1.433125 8.763125 -1.86625 9.52625 -2.3125 10.3125 C-4.1913609 13.30475995 -6.25654068 16.0857915 -8.40234375 18.890625 C-9.43858162 20.25876302 -10.45323858 21.64362335 -11.44140625 23.046875 C-15.06523355 28.14195644 -19.15966745 32.06159277 -24 36 C-24.9075 36.763125 -25.815 37.52625 -26.75 38.3125 C-28.77959399 39.83469549 -30.74404868 40.87202434 -33 42 C-33.495 42.99 -33.495 42.99 -34 44 C-39.81083028 47.12890861 -45.84933298 49.79563987 -51.8515625 52.53515625 C-54.00102005 53.53521404 -56.13231773 54.57501574 -58.24609375 55.6484375 C-60.93838779 56.96976195 -63.06464505 57.49884184 -66 58 C-67.7325 58.495 -67.7325 58.495 -69.5 59 C-72.33742417 59.81069262 -75.10561414 60.45241349 -78 61 C-78.60972656 61.18304688 -79.21945312 61.36609375 -79.84765625 61.5546875 C-82.31901834 62.0660038 -84.2542469 61.89282026 -86.75 61.5625 C-87.54921875 61.46066406 -88.3484375 61.35882813 -89.171875 61.25390625 C-89.77515625 61.17011719 -90.3784375 61.08632813 -91 61 C-88.05643412 58.05643412 -84.59541273 58.30028118 -80.625 57.8125 C-58.99921941 54.72634887 -39.17481659 45.72555303 -23 31 C-22.24589844 30.33871094 -21.49179687 29.67742187 -20.71484375 28.99609375 C-12.12483094 21.01207832 -4.98130344 10.60588778 0 0 Z " fill="#ADF3F9" transform="translate(900,388)"/>
<path d="M0 0 C0 0.66 0 1.32 0 2 C4.29 2.33 8.58 2.66 13 3 C13 3.99 13 4.98 13 6 C12.15824219 5.855625 11.31648437 5.71125 10.44921875 5.5625 C-18.68187107 1.20644919 -44.50860487 4.12439223 -70.63671875 17.86328125 C-73 19 -73 19 -75 19 C-75 18.34 -75 17.68 -75 17 C-67 13 -67 13 -64.91015625 11.9609375 C-63.32438454 11.16318732 -61.75378888 10.33535407 -60.1875 9.5 C-56.83086597 7.92040751 -53.57301042 6.98565805 -50 6 C-48.04961944 5.25608014 -46.11483772 4.48526655 -44.1875 3.68359375 C-41.1593054 2.73728294 -38.14556768 2.40100236 -35 2 C-33.75605469 1.82339844 -32.51210938 1.64679688 -31.23046875 1.46484375 C-20.77383518 0.06890575 -10.54065679 -0.22190856 0 0 Z " fill="#AAF2F8" transform="translate(818,218)"/>
<path d="M0 0 C0.99 0.495 0.99 0.495 2 1 C-0.97666853 4.05154602 -3.96361567 7.09255771 -6.95996094 10.12475586 C-7.97512529 11.15488696 -8.98756694 12.18770934 -9.99707031 13.22338867 C-15.59086589 18.95841374 -20.91501241 24.10244988 -28 28 C-28.78375 28.495 -29.5675 28.99 -30.375 29.5 C-37.28608288 33.44919022 -42.98512214 36.41709979 -51 37 C-51.33 37.33 -51.66 37.66 -52 38 C-59.15420939 38.412374 -66.28818979 38.74574054 -73 36 C-73.66 35.34 -74.32 34.68 -75 34 C-74.26998779 34.02094727 -73.53997559 34.04189453 -72.7878418 34.06347656 C-69.42120617 34.14756927 -66.05479255 34.19895279 -62.6875 34.25 C-61.53958984 34.28351563 -60.39167969 34.31703125 -59.20898438 34.3515625 C-51.31623023 34.44099881 -45.19468977 33.21731018 -38 30 C-37.14470703 29.63245605 -36.28941406 29.26491211 -35.40820312 28.88623047 C-21.28119582 22.62938014 -10.51868171 10.94644875 0 0 Z " fill="#2C6C42" transform="translate(630,363)"/>
<path d="M0 0 C0.495 0.99 0.495 0.99 1 2 C-9.72600627 22.94298173 -27.92420298 38.3165257 -49 48 C-49.99 47.34 -50.98 46.68 -52 46 C-47.49019608 43.24400871 -47.49019608 43.24400871 -45.2421875 42.125 C-41.06280616 40.02802818 -36.99420341 37.71590974 -32.8984375 35.4609375 C-30 34 -30 34 -28 34 C-27.67 33.01 -27.34 32.02 -27 31 C-26.34 31 -25.68 31 -25 31 C-25 30.34 -25 29.68 -25 29 C-23.38025441 27.28769752 -21.7041054 25.62836738 -20 24 C-19.113125 23.071875 -18.22625 22.14375 -17.3125 21.1875 C-15 19 -15 19 -13 19 C-12.9175 18.4225 -12.835 17.845 -12.75 17.25 C-11.7871014 14.36130421 -10.17271168 13.10880839 -8 11 C-6.98812105 9.34051852 -5.9873454 7.67419438 -5 6 C-4.01979625 4.9805881 -3.02196992 3.97753644 -2 3 C-1.34 2.01 -0.68 1.02 0 0 Z " fill="#2E8CAD" transform="translate(898,390)"/>
<path d="M0 0 C0.66 0.33 1.32 0.66 2 1 C1.11699219 1.84820312 0.23398437 2.69640625 -0.67578125 3.5703125 C-15.60698981 18.07915667 -34.59803334 38.33952374 -35.0546875 60.67480469 C-35.03664063 61.44211914 -35.01859375 62.20943359 -35 63 C-35.66383147 66.42979593 -36.87413247 69.69745526 -38 73 C-38.33 73 -38.66 73 -39 73 C-40.46747112 52.08853649 -28.39250036 30.87272733 -15.67578125 15.12109375 C-10.86042239 9.61662595 -5.57827327 4.7210918 0 0 Z " fill="#28633D" transform="translate(521,248)"/>
<path d="M0 0 C0.495 0.495 0.495 0.495 1 1 C3.32817964 1.36760731 5.6618385 1.70241581 8 2 C8 2.66 8 3.32 8 4 C9.03125 4.103125 10.0625 4.20625 11.125 4.3125 C14.99497951 4.99910927 17.58890344 6.10494636 21 8 C21.78375 8.391875 22.5675 8.78375 23.375 9.1875 C23.91125 9.455625 24.4475 9.72375 25 10 C25 10.66 25 11.32 25 12 C25.99 12 26.98 12 28 12 C27.67 12.99 27.34 13.98 27 15 C26.01902344 14.46890625 25.03804687 13.9378125 24.02734375 13.390625 C3.75758017 2.66523872 -14.79938196 0.4989619 -37 6 C-37.33 5.34 -37.66 4.68 -38 4 C-25.98647423 -0.71959941 -12.75078031 -2.07278695 0 0 Z " fill="#2E9ABC" transform="translate(816,253)"/>
<path d="M0 0 C1.5 1.3125 1.5 1.3125 3 3 C3 3.99 3 4.98 3 6 C2.01 6 1.02 6 0 6 C-0.13277344 6.81984375 -0.26554688 7.6396875 -0.40234375 8.484375 C-0.57894531 9.56203125 -0.75554688 10.6396875 -0.9375 11.75 C-1.19853516 13.35101563 -1.19853516 13.35101563 -1.46484375 14.984375 C-2.18891808 19.06456026 -2.67648191 21.51472287 -5 25 C-5.50680804 26.67358039 -5.95952489 28.36393998 -6.375 30.0625 C-7.35834363 33.84191669 -8.49041819 37.39889836 -10 41 C-11.84059584 45.4047847 -13.12726587 49.83034703 -14.2890625 54.45703125 C-15.01784928 57.06384549 -15.95232847 59.50618358 -17 62 C-17.66 62 -18.32 62 -19 62 C-17.69302583 54.50441693 -15.68890877 47.38660824 -13.33984375 40.15625 C-12.81494102 38.51988586 -12.81494102 38.51988586 -12.2794342 36.85046387 C-11.54487962 34.56387596 -10.80773586 32.27811833 -10.06811523 29.99316406 C-8.93238624 26.48420047 -7.80438731 22.97282458 -6.67773438 19.4609375 C-5.9613805 17.23423244 -5.24459898 15.00766489 -4.52734375 12.78125 C-4.18879868 11.72925415 -3.8502536 10.6772583 -3.50144958 9.59338379 C-3.18764847 8.62477417 -2.87384735 7.65616455 -2.55053711 6.65820312 C-2.27455185 5.80456177 -1.99856659 4.95092041 -1.71421814 4.07141113 C-1 2 -1 2 0 0 Z " fill="#AFEEEF" transform="translate(773,328)"/>
<path d="M0 0 C0.66 0.33 1.32 0.66 2 1 C1.2575 1.5775 0.515 2.155 -0.25 2.75 C-2.96954275 4.88759126 -2.96954275 4.88759126 -5.0625 7.125 C-6.97053498 8.97148546 -8.63660351 9.85904997 -11 11 C-11.33 11.66 -11.66 12.32 -12 13 C-12.99 13.33 -13.98 13.66 -15 14 C-16.4587688 15.29078411 -16.4587688 15.29078411 -18 17 C-21.40877593 20.47376126 -24.9321088 23.75981411 -28.5625 27 C-33.15968478 31.15783863 -37.48616535 35.50537895 -41.6875 40.0625 C-42.20449463 40.62259766 -42.72148926 41.18269531 -43.25415039 41.75976562 C-45.92972984 44.66331078 -45.92972984 44.66331078 -48 48 C-48.99 47.67 -49.98 47.34 -51 47 C-50.43152344 46.3709375 -49.86304688 45.741875 -49.27734375 45.09375 C-48.50519531 44.2378125 -47.73304688 43.381875 -46.9375 42.5 C-46.10476563 41.57703125 -45.27203125 40.6540625 -44.4140625 39.703125 C-42.5141058 37.5756654 -40.65668058 35.42518735 -38.8125 33.25 C-27.7648727 20.68205701 -15.06680009 7.71049625 0 0 Z " fill="#B3F5F6" transform="translate(763,266)"/>
<path d="M0 0 C0.33 0 0.66 0 1 0 C1.01458252 0.60247559 1.02916504 1.20495117 1.04418945 1.82568359 C1.81713099 30.60751366 5.38354958 59.79585245 27 81 C26.67 81.66 26.34 82.32 26 83 C8.22664423 65.14436017 -1.36613773 39.33763439 -1.3125 14.1875 C-1.21622818 9.37897572 -0.74813494 4.75035276 0 0 Z " fill="#24603A" transform="translate(481,324)"/>
<path d="M0 0 C2 3 2 3 1.75 5.5625 C1 8 1 8 -1 10 C-3.27490234 10.21118164 -3.27490234 10.21118164 -6.0859375 10.16015625 C-7.09914063 10.14919922 -8.11234375 10.13824219 -9.15625 10.12695312 C-10.2184375 10.10568359 -11.280625 10.08441406 -12.375 10.0625 C-14.46607551 10.02798959 -16.5572292 9.99786752 -18.6484375 9.97265625 C-19.57833496 9.95468994 -20.50823242 9.93672363 -21.46630859 9.91821289 C-23.94906643 9.88629916 -23.94906643 9.88629916 -26.02197266 10.62670898 C-28.7925268 11.14956473 -30.41880472 10.0657561 -33 9 C-35.99335081 8.63814773 -35.99335081 8.63814773 -39.17578125 8.5859375 C-40.33271484 8.54726563 -41.48964844 8.50859375 -42.68164062 8.46875 C-44.47891602 8.42234375 -44.47891602 8.42234375 -46.3125 8.375 C-47.53001953 8.33632813 -48.74753906 8.29765625 -50.00195312 8.2578125 C-53.00115228 8.16371998 -56.00034823 8.07807791 -59 8 C-59 7.67 -59 7.34 -59 7 C-39.53 7 -20.06 7 0 7 C0 4.69 0 2.38 0 0 Z " fill="#39A1BC" transform="translate(878,326)"/>
<path d="M0 0 C0.77424316 -0.00555908 1.54848633 -0.01111816 2.34619141 -0.0168457 C6.17011319 0.03235144 9.19912152 0.1564443 12.4375 2.3125 C10.7875 2.9725 9.1375 3.6325 7.4375 4.3125 C6.9425 3.3225 6.9425 3.3225 6.4375 2.3125 C5.47650391 2.42078125 5.47650391 2.42078125 4.49609375 2.53125 C0.48478793 2.96167328 -3.3340599 3.31998984 -7.375 3.1875 C-10.60840492 3.05531601 -10.60840492 3.05531601 -13.125 4.875 C-16.34558083 6.7743169 -17.96301587 5.91241402 -21.5625 5.3125 C-23.99639334 6.50453897 -23.99639334 6.50453897 -26.5625 8.3125 C-29.53178176 9.71689002 -32.54427105 11.01709455 -35.5625 12.3125 C-35.390625 10.47265625 -35.390625 10.47265625 -34.5625 8.3125 C-24.29340654 2.06251725 -11.8176177 0.07236245 0 0 Z " fill="#AEF4F7" transform="translate(803.5625,254.6875)"/>
<path d="M0 0 C0.99 0.495 0.99 0.495 2 1 C2 2.32 2 3.64 2 5 C2.66 5 3.32 5 4 5 C4.16435547 5.85271484 4.16435547 5.85271484 4.33203125 6.72265625 C5.10861479 10.50455493 5.87935311 13.74905447 7.5625 17.25 C11.95698923 26.90455967 11.38499435 42.85430974 9 53 C8.67 53 8.34 53 8 53 C7.98582031 51.8346875 7.97164062 50.669375 7.95703125 49.46875 C7.61335065 35.55615685 5.12907344 22.52798628 2 9 C1.32834321 6.00108759 0.66438215 3.00053518 0 0 Z " fill="#B0F9FC" transform="translate(905,291)"/>
<path d="M0 0 C15.18 0 30.36 0 46 0 C44.55457665 7.22711677 43.29932781 12.30453584 40 18.5625 C39.64421875 19.27212891 39.2884375 19.98175781 38.921875 20.71289062 C36.28245656 25.85877172 36.28245656 25.85877172 34 27 C34.47628385 22.71344531 35.00564872 20.96492277 38 18 C40.31153617 13.74358512 42.70411943 8.88202941 43 4 C40.377799 1.377799 38.50039421 1.75142637 34.92984009 1.72210693 C34.09963348 1.7261554 33.26942688 1.73020386 32.4140625 1.734375 C31.56073334 1.73246155 30.70740417 1.7305481 29.82821655 1.72857666 C28.02089138 1.72721428 26.21355643 1.73091442 24.40625 1.73925781 C21.64300427 1.74993046 18.88041258 1.73937803 16.1171875 1.7265625 C14.36197773 1.7278846 12.60676837 1.73044804 10.8515625 1.734375 C9.61232529 1.72830231 9.61232529 1.72830231 8.34805298 1.72210693 C2.89492378 1.73546791 2.89492378 1.73546791 -2 4 C-1.34 2.68 -0.68 1.36 0 0 Z " fill="#A2F5FC" transform="translate(830,353)"/>
<path d="M0 0 C7.42857143 -0.14285714 7.42857143 -0.14285714 11 1 C11 1.66 11 2.32 11 3 C13.64 3.33 16.28 3.66 19 4 C19 4.66 19 5.32 19 6 C19.56332031 6.11085937 20.12664063 6.22171875 20.70703125 6.3359375 C27.93553629 8.42937167 34.25721875 13.81689305 40.0234375 18.47265625 C42.07843216 20.14058211 42.07843216 20.14058211 44.9375 21.625 C47.56514506 23.37676338 48.11555028 25.02503275 49 28 C45.32173887 25.92155298 42.24499773 23.58308739 39.0625 20.8125 C29.37007277 12.81981569 18.85021783 7.64310569 7.1796875 3.2265625 C4.68803952 2.26541082 2.35294067 1.25256046 0 0 Z " fill="#A2F2F9" transform="translate(831,224)"/>
<path d="M0 0 C21.34148277 -0.73969196 38.46115785 4.93054191 56 17 C55.01 17.33 54.02 17.66 53 18 C50.23760649 16.58511552 48.19636905 15.19636905 46 13 C43.93125966 12.3574765 43.93125966 12.3574765 42 12 C42 11.34 42 10.68 42 10 C39.69 9.67 37.38 9.34 35 9 C35 8.34 35 7.68 35 7 C34.38125 7.185625 33.7625 7.37125 33.125 7.5625 C31 8 31 8 29 7 C29 6.34 29 5.68 29 5 C28.01 5 27.02 5 26 5 C26 4.34 26 3.68 26 3 C23.36 3.33 20.72 3.66 18 4 C18 3.34 18 2.68 18 2 C16.88625 2.2784375 16.88625 2.2784375 15.75 2.5625 C12.92104183 3.01256153 11.70230666 2.71531647 9 2 C7.205625 2.0309375 7.205625 2.0309375 5.375 2.0625 C2 2 2 2 0 0 Z " fill="#64976A" transform="translate(591,226)"/>
<path d="M0 0 C0.66 0.33 1.32 0.66 2 1 C-1.75693628 4.28731925 -5.39307328 6.22861422 -10 8.125 C-11.19625 8.62257813 -12.3925 9.12015625 -13.625 9.6328125 C-14.73875 10.08398438 -15.8525 10.53515625 -17 11 C-17.86753906 11.36738281 -18.73507812 11.73476563 -19.62890625 12.11328125 C-22.06328675 13.02366737 -24.3851842 13.58268076 -26.9375 14.0625 C-27.79988281 14.22621094 -28.66226563 14.38992188 -29.55078125 14.55859375 C-32.36321806 15.06546035 -35.17718376 15.55429217 -38 16 C-38 15.67 -38 15.34 -38 15 C-43.94 14.67 -49.88 14.34 -56 14 C-56 13.67 -56 13.34 -56 13 C-55.33581055 12.98541748 -54.67162109 12.97083496 -53.98730469 12.95581055 C-35.00472643 12.48997031 -16.29294316 10.86196211 0 0 Z " fill="#A2DCB7" transform="translate(617,420)"/>
<path d="M0 0 C0.66 0 1.32 0 2 0 C5.81828578 5.50282362 8.85542988 11.42426704 11.97363281 17.34106445 C15.35943184 23.74279204 18.98173002 29.97259503 23 36 C23.18175781 35.37351562 23.36351562 34.74703125 23.55078125 34.1015625 C23.80214844 33.28429687 24.05351563 32.46703125 24.3125 31.625 C24.67794922 30.40683594 24.67794922 30.40683594 25.05078125 29.1640625 C26 27 26 27 29 25 C28.57448104 26.91936213 28.13408062 28.83542874 27.6875 30.75 C27.44386719 31.81734375 27.20023438 32.8846875 26.94921875 33.984375 C26.0245175 36.92210901 24.99907642 38.69294262 23 41 C14.54750648 27.82405423 6.8785234 14.06223725 0 0 Z " fill="#AFF1ED" transform="translate(713,333)"/>
<path d="M0 0 C0.66 0.33 1.32 0.66 2 1 C1.14277344 1.64066406 0.28554688 2.28132813 -0.59765625 2.94140625 C-15.26519931 13.98712183 -25.0241678 25.82332774 -32 43 C-33.17057517 40.1552301 -33.04456077 39.11265716 -31.890625 36.1953125 C-31.34921875 35.18210937 -30.8078125 34.16890625 -30.25 33.125 C-29.71890625 32.11695313 -29.1878125 31.10890625 -28.640625 30.0703125 C-28.09921875 29.05710937 -27.5578125 28.04390625 -27 27 C-26.47921875 25.90429688 -25.9584375 24.80859375 -25.421875 23.6796875 C-24 21 -24 21 -22 20 C-22 19.34 -22 18.68 -22 18 C-21.34 18 -20.68 18 -20 18 C-20 17.34 -20 16.68 -20 16 C-19.34 16 -18.68 16 -18 16 C-17.773125 15.4225 -17.54625 14.845 -17.3125 14.25 C-15.67083893 11.43572387 -13.56440947 9.97262267 -11 8 C-10.67 7.34 -10.34 6.68 -10 6 C-9.01 5.67 -8.02 5.34 -7 5 C-6.525625 4.525625 -6.05125 4.05125 -5.5625 3.5625 C-3.81798529 1.81798529 -2.29621441 0.88885719 0 0 Z " fill="#27643A" transform="translate(551,268)"/>
<path d="M0 0 C5.29971015 4.49672377 9.52137821 10.5155248 12 17 C11.20691562 21.07515684 9.97389716 23.21405766 7 26 C6.01754027 22.60511062 5.03961667 19.20893071 4.0625 15.8125 C3.78470703 14.85279297 3.50691406 13.89308594 3.22070312 12.90429688 C2.95322266 11.97294922 2.68574219 11.04160156 2.41015625 10.08203125 C2.16402588 9.22843018 1.91789551 8.3748291 1.66430664 7.49536133 C1.0028046 5.01053504 0.47674908 2.52617668 0 0 Z " fill="#2E6C45" transform="translate(667,406)"/>
<path d="M0 0 C6.93998648 2.16163513 13.43117569 4.8936214 20 8 C20 8.66 20 9.32 20 10 C21.1446875 10.1546875 21.1446875 10.1546875 22.3125 10.3125 C25.18416484 11.04711194 26.23042094 11.6716065 28 14 C28 14.66 28 15.32 28 16 C28.83337891 16.34417969 28.83337891 16.34417969 29.68359375 16.6953125 C32.63956971 18.36022982 34.68526994 20.45832871 37.0625 22.875 C37.91972656 23.73867188 38.77695312 24.60234375 39.66015625 25.4921875 C41.612699 27.58489609 43.34680061 29.66925988 45 32 C44.505 32.99 44.505 32.99 44 34 C43.12859375 33.02160156 42.2571875 32.04320312 41.359375 31.03515625 C28.52486893 16.82798543 16.36806226 7.75532617 -2 2 C-1.34 1.34 -0.68 0.68 0 0 Z " fill="#4E855A" transform="translate(603,259)"/>
<path d="M0 0 C0.66 0.66 1.32 1.32 2 2 C-4.10000479 6.05821525 -10.28975996 9.80066298 -16.75 13.25 C-17.66954468 13.74306641 -17.66954468 13.74306641 -18.60766602 14.24609375 C-22.65929653 16.38340927 -26.76959193 18.24275357 -31 20 C-31.33 24.29 -31.66 28.58 -32 33 C-33.84785503 29.30428995 -34.31573418 27.86682413 -34.375 23.9375 C-34.40335938 23.08027344 -34.43171875 22.22304688 -34.4609375 21.33984375 C-34 19 -34 19 -32.18359375 17.265625 C-29.75219332 15.85636965 -27.24969856 15.01222844 -24.609375 14.07421875 C-15.93283692 10.50229065 -7.39423261 5.77110838 0 0 Z " fill="#B4F1F3" transform="translate(737,503)"/>
<path d="M0 0 C1.25683594 0.00322266 2.51367188 0.00644531 3.80859375 0.00976562 C5.12730469 0.01814453 6.44601562 0.02652344 7.8046875 0.03515625 C9.14452961 0.04017136 10.4843735 0.04473424 11.82421875 0.04882812 C15.10941956 0.06064539 18.39453147 0.07712008 21.6796875 0.09765625 C16.43682133 3.59290037 12.75788817 3.0248394 6.6796875 2.09765625 C0.56778049 1.75451699 0.56778049 1.75451699 -5.3203125 3.09765625 C-7.03468952 4.98852945 -7.03468952 4.98852945 -8.4453125 7.34765625 C-8.94289063 8.1159375 -9.44046875 8.88421875 -9.953125 9.67578125 C-11.31733992 12.09239055 -12.35299175 14.49970909 -13.3203125 17.09765625 C-13.9803125 17.09765625 -14.6403125 17.09765625 -15.3203125 17.09765625 C-13.75116875 11.08260519 -12.21797168 6.00116297 -8.3203125 1.09765625 C-5.50207058 -0.31146471 -3.14779968 -0.01417928 0 0 Z " fill="#2E8EA7" transform="translate(823.3203125,333.90234375)"/>
<path d="M0 0 C0.66 0 1.32 0 2 0 C2.25515919 7.52719602 1.28297723 14.58851545 0 22 C0.58491211 21.76289307 1.16982422 21.52578613 1.77246094 21.28149414 C4.43054521 20.20576606 7.09024686 19.13409476 9.75 18.0625 C11.13058594 17.50272461 11.13058594 17.50272461 12.5390625 16.93164062 C13.42851563 16.57392578 14.31796875 16.21621094 15.234375 15.84765625 C16.05131836 15.51773682 16.86826172 15.18781738 17.70996094 14.84790039 C19.79479339 14.07597895 21.83367652 13.4893803 24 13 C21.69476113 16.71011508 19.67842411 17.79584133 15.5625 19.125 C11.72934044 20.33844989 11.72934044 20.33844989 8.15234375 22.1171875 C6 23 6 23 -2 23 C-1.34 15.41 -0.68 7.82 0 0 Z " fill="#B3ECF1" transform="translate(702,538)"/>
<path d="M0 0 C0.66 0.33 1.32 0.66 2 1 C-0.97666853 4.05154602 -3.96361567 7.09255771 -6.95996094 10.12475586 C-7.97512529 11.15488696 -8.98756694 12.18770934 -9.99707031 13.22338867 C-15.59366511 18.96128363 -20.92050817 24.08743826 -28 28 C-29.3303125 28.8971875 -29.3303125 28.8971875 -30.6875 29.8125 C-33.32990181 31.16940904 -35.06942004 31.25119257 -38 31 C-35.8014459 28.8014459 -33.83482716 27.83360736 -31.0625 26.4375 C-18.87572049 19.83764668 -9.57624784 9.82788647 0 0 Z " fill="#326F49" transform="translate(630,363)"/>
<path d="M0 0 C-27.52659574 18 -27.52659574 18 -38 18 C-38 17.34 -38 16.68 -38 16 C-33.74118513 13.71478227 -29.63849571 12.3127818 -25 11 C-24.01 10.34 -23.02 9.68 -22 9 C-19.92518463 8.45505822 -17.84972282 8.05773159 -15.7421875 7.66015625 C-15.16726563 7.44230469 -14.59234375 7.22445312 -14 7 C-13.67 6.01 -13.34 5.02 -13 4 C-9.4595392 1.47109943 -4.23291591 -2.11645796 0 0 Z " fill="#1D617C" transform="translate(750,538)"/>
<path d="M0 0 C0.66 0.99 1.32 1.98 2 3 C-9.52164009 17.78132118 -9.52164009 17.78132118 -15 24 C-15.66 23.67 -16.32 23.34 -17 23 C-16.67 21.68 -16.34 20.36 -16 19 C-15.34 19 -14.68 19 -14 19 C-13.67 18.01 -13.34 17.02 -13 16 C-12.34 16 -11.68 16 -11 16 C-10.5978125 14.7934375 -10.5978125 14.7934375 -10.1875 13.5625 C-9.795625 12.716875 -9.40375 11.87125 -9 11 C-8.01 10.67 -7.02 10.34 -6 10 C-5.30959426 8.34302621 -4.6469365 6.6744239 -4 5 C-2.71332828 3.29705213 -1.38903267 1.62053812 0 0 Z " fill="#287998" transform="translate(812,476)"/>
<path d="M0 0 C0.33 0 0.66 0 1 0 C2.85769851 7.86204547 3.2185191 15.51257054 3.25 23.5625 C3.25902344 24.53848145 3.26804687 25.51446289 3.27734375 26.52001953 C3.27347656 27.44282715 3.26960937 28.36563477 3.265625 29.31640625 C3.26336914 30.14599854 3.26111328 30.97559082 3.25878906 31.83032227 C3 34 3 34 1 37 C-0.08209479 31.73552299 -0.1495458 26.6593945 -0.125 21.3125 C-0.12886719 20.45849609 -0.13273438 19.60449219 -0.13671875 18.72460938 C-0.13542969 17.90412109 -0.13414062 17.08363281 -0.1328125 16.23828125 C-0.13168457 15.49618408 -0.13055664 14.75408691 -0.12939453 13.98950195 C0 12 0 12 1 9 C0.34 9 -0.32 9 -1 9 C-0.67 6.03 -0.34 3.06 0 0 Z " fill="#B1E8C7" transform="translate(675,438)"/>
<path d="M0 0 C-2.26073827 1.50715884 -4.40255402 2.78073843 -6.80078125 4.0234375 C-7.53103516 4.405 -8.26128906 4.7865625 -9.01367188 5.1796875 C-10.53380216 5.97010358 -12.05462514 6.75918903 -13.57617188 7.546875 C-17.90494548 9.81197515 -21.98990604 12.20759753 -26 15 C-26 13.68 -26 12.36 -26 11 C-23.3125 8.9375 -23.3125 8.9375 -20 7 C-16.26283383 4.806487 -16.26283383 4.806487 -13 2 C-9.875 1.875 -9.875 1.875 -7 2 C-7 1.34 -7 0.68 -7 0 C-3.98968256 -0.93423645 -3.13349732 -1.04449911 0 0 Z " fill="#328DA3" transform="translate(778,259)"/>
<path d="M0 0 C0.66 0.33 1.32 0.66 2 1 C-2.72237817 6.81723121 -7.47319132 11.30607603 -13.734375 15.42578125 C-15.72751606 16.81067064 -17.29283698 18.16899187 -18.9375 19.9375 C-19.9584375 20.9584375 -19.9584375 20.9584375 -21 22 C-21.99 22 -22.98 22 -24 22 C-24 21.34 -24 20.68 -24 20 C-22.01075884 18.36373697 -20.01461662 16.82957783 -17.9375 15.3125 C-13.4162465 11.93517074 -9.25952831 8.51160449 -5.3671875 4.40625 C-3.72439763 2.71652328 -1.94718636 1.32408672 0 0 Z " fill="#206A87" transform="translate(767,481)"/>
<path d="M0 0 C2.90625 0.2421875 2.90625 0.2421875 6.5 0.875 C17.19222147 2.5592422 27.23472355 1.86866784 38 1 C38.495 1.99 38.495 1.99 39 3 C33.59276772 4.67436305 27.86721975 4.18596638 22.26538086 4.18530273 C20.20470289 4.18748181 18.14456724 4.20563713 16.08398438 4.22460938 C14.77107422 4.22654297 13.45816406 4.22847656 12.10546875 4.23046875 C10.31338989 4.23663208 10.31338989 4.23663208 8.48510742 4.24291992 C4.67234562 3.97716174 1.62431593 3.16891934 -2 2 C-1.34 1.34 -0.68 0.68 0 0 Z " fill="#1C5E35" transform="translate(550,429)"/>
<path d="M0 0 C0.66 0.66 1.32 1.32 2 2 C1.6060519 9.48501381 -0.54721236 16.36347311 -4 23 C-4.99 23 -5.98 23 -7 23 C-4.97810834 15.21878058 -2.61369593 7.60227292 0 0 Z " fill="#358A98" transform="translate(765,287)"/>
<path d="M0 0 C0.83144531 0.00451172 1.66289063 0.00902344 2.51953125 0.01367188 C4.55471897 0.02536836 6.58986923 0.04330065 8.625 0.0625 C6.38661728 2.62311561 5.99552366 3.03683797 2.41015625 3.28515625 C1.18167969 3.23230469 -0.04679688 3.17945313 -1.3125 3.125 C-5.78826322 2.94145135 -8.4574153 2.95169494 -12.375 5.0625 C-15.625 4.1875 -15.625 4.1875 -18.375 3.0625 C-12.7886016 -0.6617656 -6.48929177 -0.06727336 0 0 Z " fill="#B7E5C4" transform="translate(588.375,258.9375)"/>
<path d="M0 0 C0.33 0.66 0.66 1.32 1 2 C-3.03372724 9.87602335 -9.53318061 21.476541 -18 25 C-18.66 25.33 -19.32 25.66 -20 26 C-18.71480435 23.13302508 -17.42870746 21.02392288 -15 19 C-14.34 19 -13.68 19 -13 19 C-12.9175 18.4225 -12.835 17.845 -12.75 17.25 C-11.7871014 14.36130421 -10.17271168 13.10880839 -8 11 C-6.98812105 9.34051852 -5.9873454 7.67419438 -5 6 C-4.01979625 4.9805881 -3.02196992 3.97753644 -2 3 C-1.34 2.01 -0.68 1.02 0 0 Z " fill="#2E95B9" transform="translate(898,390)"/>
<path d="M0 0 C0 0.66 0 1.32 0 2 C-3.0481707 2.90394028 -5.64379993 3.05227181 -8.8125 2.9375 C-12.19415768 2.88791558 -14.37433787 3.10786006 -17.6875 4.0625 C-21.50570938 5.1431253 -24.14727833 4.78626973 -28 4 C-19.48364716 -0.68104383 -9.44582686 -0.27030983 0 0 Z " fill="#528B5E" transform="translate(589,225)"/>
<path d="M0 0 C0.72316406 0.1134375 1.44632813 0.226875 2.19140625 0.34375 C0.21221775 2.69737957 -1.78747101 5.02619592 -3.80859375 7.34375 C-4.23736816 7.83649414 -4.66614258 8.32923828 -5.10791016 8.83691406 C-6.53999255 10.47315389 -7.9853183 12.09683605 -9.43359375 13.71875 C-9.90063721 14.25467773 -10.36768066 14.79060547 -10.84887695 15.34277344 C-15.05384847 20.00881967 -15.05384847 20.00881967 -18.80859375 20.34375 C-16.85359632 17.64172104 -14.84028461 14.98855467 -12.80859375 12.34375 C-12.41752441 11.83005859 -12.02645508 11.31636719 -11.62353516 10.78710938 C-10.3477628 9.12550088 -9.04969194 7.48358796 -7.74609375 5.84375 C-7.33504395 5.30331055 -6.92399414 4.76287109 -6.50048828 4.20605469 C-4.40231962 1.60943529 -3.38496567 0.41429343 0 0 Z " fill="#2B7998" transform="translate(787.80859375,458.65625)"/>
<path d="M0 0 C0.99 0 1.98 0 3 0 C1.48526781 7.98676972 -1.16802552 15.40122878 -4 23 C-4.99 23 -5.98 23 -7 23 C-5.23728616 15.14791106 -2.59515364 7.60716793 0 0 Z " fill="#317F87" transform="translate(745,348)"/>
<path d="M0 0 C0 0.33 0 0.66 0 1 C-1.19753906 1.03738281 -2.39507813 1.07476562 -3.62890625 1.11328125 C-14.05133058 1.50980404 -23.8428986 2.58598039 -34 5 C-34.33 4.34 -34.66 3.68 -35 3 C-23.07801564 -1.29840253 -12.46246131 -1.45698921 0 0 Z " fill="#2C91B0" transform="translate(813,254)"/>
<path d="M0 0 C8.64938714 7.20782262 17.54238294 14.98659434 23 25 C22.71484375 27.328125 22.71484375 27.328125 22 29 C21.608125 28.113125 21.21625 27.22625 20.8125 26.3125 C18.92923328 22.87066773 16.7917597 20.71829234 14 18 C13.67 17.01 13.34 16.02 13 15 C11.36497064 13.41441619 11.36497064 13.41441619 9.4375 11.9375 C7.49609375 10.40234375 7.49609375 10.40234375 6 9 C6 8.34 6 7.68 6 7 C5.34 7 4.68 7 4 7 C1.875 5.1875 1.875 5.1875 0 3 C0 2.01 0 1.02 0 0 Z " fill="#5D946A" transform="translate(657,251)"/>
<path d="M0 0 C7.67028737 0.62915097 15.33667323 1.29099142 23 2 C23 2.33 23 2.66 23 3 C25.97 3.33 28.94 3.66 32 4 C32 4.33 32 4.66 32 5 C20.91985206 5.39782446 10.81924515 4.41706541 0 2 C0 1.34 0 0.68 0 0 Z " fill="#3B8CA3" transform="translate(779,443)"/>
<path d="M0 0 C-1 2 -1 2 -3.6875 3 C-4.780625 3.33 -5.87375 3.66 -7 4 C-7.87527344 4.33773438 -8.75054688 4.67546875 -9.65234375 5.0234375 C-13.76393969 6.22285289 -17.61507493 6.45171491 -21.875 6.625 C-23.050625 6.68300781 -23.050625 6.68300781 -24.25 6.7421875 C-26.16631367 6.83566622 -28.08312319 6.91888495 -30 7 C-30.33 6.34 -30.66 5.68 -31 5 C-26.38 4.67 -21.76 4.34 -17 4 C-17 3.67 -17 3.34 -17 3 C-14.73194205 2.30190555 -12.46133393 1.61628983 -10.1875 0.9375 C-9.54490234 0.73833984 -8.90230469 0.53917969 -8.24023438 0.33398438 C-3.33984375 -1.11328125 -3.33984375 -1.11328125 0 0 Z " fill="#2380A4" transform="translate(832,409)"/>
<path d="M0 0 C1.7734375 0.17578125 1.7734375 0.17578125 4 1 C5.8515625 3.29296875 5.8515625 3.29296875 7.625 6.1875 C8.21539063 7.12980469 8.80578125 8.07210938 9.4140625 9.04296875 C10.98820914 11.97801557 12.04684328 14.8149466 13 18 C9.87442699 15.26882106 7.92192486 11.83329412 5.8125 8.3125 C5.26045898 7.40274414 5.26045898 7.40274414 4.69726562 6.47460938 C3.79435074 4.98538612 2.89665304 3.49300185 2 2 C2.30035156 2.89203125 2.60070312 3.7840625 2.91015625 4.703125 C3.29042969 5.87359375 3.67070313 7.0440625 4.0625 8.25 C4.44535156 9.41015625 4.82820312 10.5703125 5.22265625 11.765625 C6 15 6 15 5 19 C4.34 16.03 3.68 13.06 3 10 C2.34 10 1.68 10 1 10 C0.37542727 6.56484998 0 3.50935186 0 0 Z " fill="#B1EACF" transform="translate(666,405)"/>
<path d="M0 0 C0.66 0.33 1.32 0.66 2 1 C-0.52808794 8.71732109 -3.25027472 16.35945902 -6 24 C-6.99 23.34 -7.98 22.68 -9 22 C-7.66882469 17.55266432 -6.33190599 13.31214446 -3.9375 9.3125 C-2.13466353 6.23023119 -0.99906114 3.41345888 0 0 Z " fill="#2E8AA5" transform="translate(825,358)"/>
<path d="M0 0 C0.33 0 0.66 0 1 0 C1.33 5.28 1.66 10.56 2 16 C2.33 16 2.66 16 3 16 C3.39325819 22.97669157 2.63096039 28.51656189 0 35 C-0.33 35 -0.66 35 -1 35 C-0.67 23.45 -0.34 11.9 0 0 Z " fill="#99E8F3" transform="translate(912,324)"/>
<path d="M0 0 C-0.55945313 0.43828125 -1.11890625 0.8765625 -1.6953125 1.328125 C-7.71420149 6.08904684 -13.56426353 11.01124062 -19.35205078 16.04980469 C-23.7919507 19.89597535 -23.7919507 19.89597535 -26 21 C-24.55922954 17.63820226 -22.75249979 15.40843732 -20 13 C-19.34 13 -18.68 13 -18 13 C-17.67 12.01 -17.34 11.02 -17 10 C-14.96875 8.24609375 -14.96875 8.24609375 -12.5 6.4375 C-9.2216853 4.168506 -9.2216853 4.168506 -7 1 C-4.01793274 -0.8886426 -3.49368922 -1.16456307 0 0 Z " fill="#ACF0F0" transform="translate(734,244)"/>
<path d="M0 0 C0.33 0.66 0.66 1.32 1 2 C-0.85096142 5.58173054 -3.2061039 8.63627118 -5.75 11.75 C-9.09860598 15.87088596 -12.35337778 20.04900455 -15.5546875 24.28515625 C-17 26 -17 26 -19 27 C-17.66735698 23.20297191 -16.01543159 20.51539408 -13.4375 17.4375 C-10.18890876 13.48554406 -7.05621943 9.47578874 -4 5.375 C-2.8553125 3.83972656 -2.8553125 3.83972656 -1.6875 2.2734375 C-1.130625 1.52320313 -0.57375 0.77296875 0 0 Z " fill="#337461" transform="translate(671,310)"/>
<path d="M0 0 C0.66 0.99 1.32 1.98 2 3 C-0.82921198 8.89419163 -4.1386529 12.89348604 -10 16 C-13.95760827 16.0920374 -16.83411465 14.31024066 -20 12 C-21.3125 9.8125 -21.3125 9.8125 -22 8 C-20.7625 8.99 -20.7625 8.99 -19.5 10 C-15.5218269 12.63330607 -12.70598109 12.5975849 -8 12 C-2.7744533 9.21304176 -1.70316496 5.37841565 0 0 Z " fill="#B1F0F0" transform="translate(745,415)"/>
<path d="M0 0 C2.10000926 3.45883878 2.10000926 3.45883878 1.6484375 5.90234375 C1.0272678 7.9117903 0.33180056 9.85536748 -0.4375 11.8125 C-1.45853862 14.47716177 -2.36153992 17.12539564 -3.125 19.875 C-4 23 -4 23 -5 25 C-5.66 25 -6.32 25 -7 25 C-5.80565506 18.92874657 -4.13788804 13.34836006 -1.90234375 7.578125 C-1.02112271 5.06035059 -0.457874 2.62451487 0 0 Z " fill="#B4F1F1" transform="translate(753,390)"/>
<path d="M0 0 C0.66 0 1.32 0 2 0 C1.33268197 2.00195408 0.66430444 4.00355821 -0.0078125 6.00390625 C-0.76796553 8.29932898 -1.51025531 10.59792712 -2.2421875 12.90234375 C-2.68227689 14.26823393 -3.12238109 15.63411933 -3.5625 17 C-3.77221436 17.6710376 -3.98192871 18.3420752 -4.19799805 19.03344727 C-4.74200998 20.70843703 -5.36512829 22.35729565 -6 24 C-6.66 24.33 -7.32 24.66 -8 25 C-7.85851011 23.3954444 -7.71164314 21.79136233 -7.5625 20.1875 C-7.48128906 19.29417969 -7.40007812 18.40085937 -7.31640625 17.48046875 C-7 15 -7 15 -6 12 C-5.34 12 -4.68 12 -4 12 C-3.87882812 11.30132812 -3.75765625 10.60265625 -3.6328125 9.8828125 C-3.38144531 8.51769531 -3.38144531 8.51769531 -3.125 7.125 C-2.96257812 6.22007812 -2.80015625 5.31515625 -2.6328125 4.3828125 C-2 2 -2 2 0 0 Z " fill="#C7F6D7" transform="translate(490,283)"/>
<path d="M0 0 C0.66 0.33 1.32 0.66 2 1 C1.63237549 1.41773682 1.26475098 1.83547363 0.88598633 2.26586914 C-0.80851359 4.19517643 -2.49801702 6.12879833 -4.1875 8.0625 C-4.76564453 8.71927734 -5.34378906 9.37605469 -5.93945312 10.05273438 C-9.56537126 14.21127325 -12.86467237 18.45938427 -16 23 C-17 20 -17 20 -15.875 17.625 C-14.26293326 15.36810657 -12.60597991 13.50974238 -10.60546875 11.6015625 C-6.89730763 7.90242367 -3.48399932 3.90906242 0 0 Z " fill="#B0F0E5" transform="translate(696,276)"/>
<path d="M0 0 C2.5 1.5 2.5 1.5 4 3 C3.67 3.99 3.34 4.98 3 6 C2.443125 5.2265625 2.443125 5.2265625 1.875 4.4375 C0.00364519 2.67643252 0.00364519 2.67643252 -2.9375 3.1875 C-5.57784079 3.88799858 -7.59828885 4.75773561 -10 6 C-10.99 6 -11.98 6 -13 6 C-10.37618979 -0.05494663 -6.24323019 -0.86676636 0 0 Z " fill="#368D9D" transform="translate(779,281)"/>
<path d="M0 0 C0 3 0 3 -1.50390625 4.61328125 C-2.18324219 5.17402344 -2.86257813 5.73476562 -3.5625 6.3125 C-4.28566406 6.91835937 -5.00882813 7.52421875 -5.75390625 8.1484375 C-6.49511719 8.75945312 -7.23632812 9.37046875 -8 10 C-9.3355096 11.14329607 -10.66904503 12.28890491 -12 13.4375 C-12.99 14.283125 -13.98 15.12875 -15 16 C-15.66 15.67 -16.32 15.34 -17 15 C-15.65377441 10.96132322 -12.92140415 9.37783368 -9.625 6.9375 C-8.73941406 6.26750977 -8.73941406 6.26750977 -7.8359375 5.58398438 C-5.2666375 3.6483293 -2.67703233 1.78468822 0 0 Z " fill="#368B9B" transform="translate(737,241)"/>
<path d="M0 0 C-3.41807464 2.94960756 -7.15174426 4.34501925 -11.375 5.75 C-12.02210938 5.98332031 -12.66921875 6.21664063 -13.3359375 6.45703125 C-17.60500504 7.89439875 -20.63846893 8.10726176 -25 7 C-25 6.67 -25 6.34 -25 6 C-24.4652002 5.85377197 -23.93040039 5.70754395 -23.37939453 5.55688477 C-20.96066661 4.89424479 -18.54282904 4.22841194 -16.125 3.5625 C-15.28324219 3.33240234 -14.44148437 3.10230469 -13.57421875 2.86523438 C-12.36572266 2.53168945 -12.36572266 2.53168945 -11.1328125 2.19140625 C-10.01737061 1.88505249 -10.01737061 1.88505249 -8.87939453 1.57250977 C-3.42168003 -0.09004421 -3.42168003 -0.09004421 0 0 Z " fill="#277F9E" transform="translate(849,437)"/>
<path d="M0 0 C0.66 0.66 1.32 1.32 2 2 C1.43152344 2.54527344 0.86304688 3.09054687 0.27734375 3.65234375 C-4.97831674 8.78516743 -9.64894789 14.08200951 -14 20 C-14.99 19.67 -15.98 19.34 -17 19 C-16.43152344 18.3709375 -15.86304688 17.741875 -15.27734375 17.09375 C-10.9172552 12.26052997 -6.58278663 7.40890036 -2.3125 2.49609375 C-1.56450684 1.64347059 -0.80201622 0.80201622 0 0 Z " fill="#AFF1ED" transform="translate(729,294)"/>
<path d="M0 0 C0.66 0.33 1.32 0.66 2 1 C0.1002235 3.37472063 -1.80005769 5.74900808 -3.703125 8.12109375 C-5.20295612 10.00098412 -6.69302459 11.88871679 -8.171875 13.78515625 C-8.85765625 14.66042969 -9.5434375 15.53570312 -10.25 16.4375 C-10.87390625 17.24058594 -11.4978125 18.04367187 -12.140625 18.87109375 C-13.94395286 20.93582838 -15.74820523 22.45064564 -18 24 C-16.69787511 21.21360547 -15.25585371 18.89076196 -13.3203125 16.50390625 C-12.80339844 15.86259766 -12.28648437 15.22128906 -11.75390625 14.56054688 C-11.21636719 13.90119141 -10.67882812 13.24183594 -10.125 12.5625 C-9.59519531 11.90701172 -9.06539062 11.25152344 -8.51953125 10.57617188 C-7.4887269 9.30109503 -6.45655146 8.0271251 -5.42285156 6.75439453 C-3.60407581 4.5118203 -1.80055495 2.25721744 0 0 Z " fill="#327154" transform="translate(650,338)"/>
<path d="M0 0 C2.3125 0.125 2.3125 0.125 5 1 C6.6875 3.8125 6.6875 3.8125 8 7 C9.30504177 10.16204347 9.30504177 10.16204347 12 12 C12 12.99 12 13.98 12 15 C12.66 15 13.32 15 14 15 C14 16.65 14 18.3 14 20 C11.2861304 17.53359571 9.49210713 14.79464022 7.5625 11.6875 C5.0973837 7.74958117 2.6008503 3.84925844 0 0 Z " fill="#A6F5FB" transform="translate(885,258)"/>
<path d="M0 0 C0.66 0.33 1.32 0.66 2 1 C-0.35195918 4.52793877 -1.15627916 4.5279367 -5 6 C-7.35921325 7.28981209 -9.68741681 8.62495163 -12.01171875 9.9765625 C-14 11 -14 11 -16 11 C-14.56513293 6.69539878 -11.37899107 5.72343952 -7.5625 3.75 C-6.86833984 3.37359375 -6.17417969 2.9971875 -5.45898438 2.609375 C-3.67445724 1.66960466 -1.83956519 0.82686472 0 0 Z " fill="#2E8BA1" transform="translate(755,231)"/>
<path d="M0 0 C0.33 0.66 0.66 1.32 1 2 C1.66 2 2.32 2 3 2 C1.44191344 13.70615034 1.44191344 13.70615034 -3 18 C-4.14817507 13.19066291 -3.75636919 10.24464324 -2.0625 5.625 C-1.49208984 4.03558594 -1.49208984 4.03558594 -0.91015625 2.4140625 C-0.60980469 1.61742187 -0.30945313 0.82078125 0 0 Z " fill="#338590" transform="translate(754,320)"/>
<path d="M0 0 C0.33 0.99 0.66 1.98 1 3 C0.01196289 4.62573242 0.01196289 4.62573242 -1.52734375 6.35546875 C-2.07197266 6.97744141 -2.61660156 7.59941406 -3.17773438 8.24023438 C-3.75845703 8.88283203 -4.33917969 9.52542969 -4.9375 10.1875 C-5.51435547 10.84169922 -6.09121094 11.49589844 -6.68554688 12.16992188 C-8.11464362 13.78799009 -9.55618343 15.39505265 -11 17 C-11.66 16.34 -12.32 15.68 -13 15 C-11.02132918 12.68707408 -9.04208794 10.37464074 -7.0625 8.0625 C-6.49853516 7.40314453 -5.93457031 6.74378906 -5.35351562 6.06445312 C-4.81533203 5.43603516 -4.27714844 4.80761719 -3.72265625 4.16015625 C-3.22515869 3.57886963 -2.72766113 2.99758301 -2.21508789 2.39868164 C-1.5013317 1.57708043 -0.76957015 0.76957015 0 0 Z " fill="#2F7673" transform="translate(694,281)"/>
<path d="M0 0 C0.66 0 1.32 0 2 0 C2 0.66 2 1.32 2 2 C2.598125 2.12375 3.19625 2.2475 3.8125 2.375 C6.95871078 3.27391737 8.6607459 4.41842154 10.3125 7.25 C12.45850212 10.74718864 15.0358976 13.16763548 18 16 C17.67 16.66 17.34 17.32 17 18 C16.34773437 17.33613281 15.69546875 16.67226563 15.0234375 15.98828125 C9.44736815 10.28840544 9.44736815 10.28840544 3.4375 5.0625 C1 3 1 3 0 0 Z " fill="#235F3B" transform="translate(596,499)"/>
<path d="M0 0 C0.33 0.66 0.66 1.32 1 2 C0.31292969 2.12117187 -0.37414062 2.24234375 -1.08203125 2.3671875 C-2.43361328 2.61855469 -2.43361328 2.61855469 -3.8125 2.875 C-4.70582031 3.03742188 -5.59914063 3.19984375 -6.51953125 3.3671875 C-9.22727846 3.91188449 -9.22727846 3.91188449 -12 6 C-14.33199388 6.07905064 -16.66832622 6.08798769 -19 6 C-16.53908406 3.53908406 -14.481204 2.97154757 -11.1875 1.875 C-10.14980469 1.52179688 -9.11210938 1.16859375 -8.04296875 0.8046875 C-5.19514399 0.05160419 -2.92424374 -0.16215769 0 0 Z M1 0 C4 1 4 1 4 1 Z " fill="#3D754C" transform="translate(563,229)"/>
<path d="M0 0 C-1 3 -1 3 -2.77734375 3.95703125 C-3.49019531 4.23933594 -4.20304688 4.52164063 -4.9375 4.8125 C-8.3397387 6.37667772 -8.8435329 6.66098795 -10.5 10.25 C-10.665 11.1575 -10.83 12.065 -11 13 C-11.33 13 -11.66 13 -12 13 C-12 10.03 -12 7.06 -12 4 C-10.56570999 3.32645501 -9.12742943 2.66140299 -7.6875 2 C-6.88699219 1.62875 -6.08648438 1.2575 -5.26171875 0.875 C-3 0 -3 0 0 0 Z " fill="#165A73" transform="translate(718,518)"/>
<path d="M0 0 C4.88100189 0.73138041 9.60024152 1.84074896 14.375 3.0625 C15.11105469 3.24876953 15.84710937 3.43503906 16.60546875 3.62695312 C18.40419444 4.08247457 20.20217529 4.5409355 22 5 C22 5.66 22 6.32 22 7 C14.30767518 7.75414949 7.89899239 5.34312406 1 2 C0.67 1.34 0.34 0.68 0 0 Z " fill="#B3F6F9" transform="translate(767,441)"/>
<path d="M0 0 C0.95261719 0.34933594 1.90523437 0.69867188 2.88671875 1.05859375 C4.15357779 1.51841666 5.4205087 1.97804162 6.6875 2.4375 C7.31333984 2.66759766 7.93917969 2.89769531 8.58398438 3.13476562 C12.03242308 4.38053667 15.3813479 5.39804449 19 6 C18.34 6.66 17.68 7.32 17 8 C12.49818839 7.64527272 8.743736 6.2222856 4.625 4.4375 C3.56539062 3.98246094 2.50578125 3.52742188 1.4140625 3.05859375 C0.61742187 2.70925781 -0.17921875 2.35992187 -1 2 C-0.67 1.34 -0.34 0.68 0 0 Z " fill="#297891" transform="translate(762,436)"/>
<path d="M0 0 C0.99 0 1.98 0 3 0 C2.68839539 2.20845985 2.37567654 4.41676251 2.0625 6.625 C1.88847656 7.85476563 1.71445312 9.08453125 1.53515625 10.3515625 C1.06225699 13.57556184 0.54848998 16.78812176 0 20 C-2.09350689 16.5980513 -2.17942163 13.94727588 -2 10 C-1.34 10 -0.68 10 0 10 C-0.33 8.02 -0.66 6.04 -1 4 C-0.34 4 0.32 4 1 4 C0.67 2.68 0.34 1.36 0 0 Z " fill="#C4F2D4" transform="translate(480,309)"/>
<path d="M0 0 C1.03238044 3.19892532 0.91495284 5.25361848 0.125 8.5 C-1.15609164 14.29953648 -1.61361579 20.08222072 -2 26 C-2.99 25.34 -3.98 24.68 -5 24 C-4.54778577 21.12391751 -4.08844901 18.24927513 -3.625 15.375 C-3.43550781 14.16263672 -3.43550781 14.16263672 -3.2421875 12.92578125 C-2.51346228 8.44412116 -1.59110872 4.27523996 0 0 Z " fill="#1B5D32" transform="translate(517,311)"/>
<path d="M0 0 C2.52113092 -0.05447822 5.0410585 -0.09389852 7.5625 -0.125 C8.26697266 -0.14175781 8.97144531 -0.15851563 9.69726562 -0.17578125 C14.51891822 -0.22022044 18.42297438 0.47231996 23 2 C20 4 20 4 18 4 C18 3.34 18 2.68 18 2 C16.88625 2.2784375 16.88625 2.2784375 15.75 2.5625 C12.92104183 3.01256153 11.70230666 2.71531647 9 2 C7.205625 2.0309375 7.205625 2.0309375 5.375 2.0625 C2 2 2 2 0 0 Z " fill="#4A8255" transform="translate(591,226)"/>
<path d="M0 0 C0.94875 0.04125 1.8975 0.0825 2.875 0.125 C1.42549545 3.9160119 -0.27672566 7.5124638 -2.125 11.125 C-3.115 11.125 -4.105 11.125 -5.125 11.125 C-3.25 5.375 -3.25 5.375 -2.125 3.125 C-3.115 2.795 -4.105 2.465 -5.125 2.125 C-3.125 0.125 -3.125 0.125 0 0 Z " fill="#3083A1" transform="translate(822.125,458.875)"/>
<path d="M0 0 C0.66 0.33 1.32 0.66 2 1 C-1.99164162 4.5653498 -5.88293665 6.40082408 -10.8125 8.25 C-11.50537109 8.518125 -12.19824219 8.78625 -12.91210938 9.0625 C-14.60501337 9.7163112 -16.30209733 10.35928201 -18 11 C-18.66 10.34 -19.32 9.68 -20 9 C-18.80761719 8.51789063 -17.61523438 8.03578125 -16.38671875 7.5390625 C-14.82024169 6.90121555 -13.25383932 6.26318514 -11.6875 5.625 C-10.50897461 5.14933594 -10.50897461 5.14933594 -9.30664062 4.6640625 C-8.54931641 4.3546875 -7.79199219 4.0453125 -7.01171875 3.7265625 C-6.31522217 3.44377441 -5.61872559 3.16098633 -4.90112305 2.86962891 C-2.74344424 1.94330428 -2.74344424 1.94330428 0 0 Z " fill="#B3EDCA" transform="translate(617,420)"/>
<path d="M0 0 C2.05893621 0.22325814 4.12233653 0.40705759 6.1875 0.5625 C7.27417969 0.64628906 8.36085938 0.73007812 9.48046875 0.81640625 C10.72763672 0.90728516 10.72763672 0.90728516 12 1 C12 1.33 12 1.66 12 2 C11.44014404 2.0093457 10.88028809 2.01869141 10.3034668 2.02832031 C7.76391854 2.08204507 5.22620889 2.16568187 2.6875 2.25 C1.80642578 2.26417969 0.92535156 2.27835937 0.01757812 2.29296875 C-5.0628676 2.33032818 -5.0628676 2.33032818 -9.10546875 5.046875 C-9.54826172 6.01367188 -9.54826172 6.01367188 -10 7 C-10.66 6.34 -11.32 5.68 -12 5 C-10.25939521 2.09899201 -9.15165006 1.0663469 -6 -0.3125 C-3 -1 -3 -1 0 0 Z " fill="#2A8CA9" transform="translate(837,351)"/>
<path d="M0 0 C2 1 2 1 3.125 3.9375 C4.9283465 10.85269485 4.2103631 18.04041215 3 25 C2.67 25 2.34 25 2 25 C1.93941406 23.69804687 1.87882813 22.39609375 1.81640625 21.0546875 C1.73195438 19.32811601 1.64730874 17.601554 1.5625 15.875 C1.52318359 15.0190625 1.48386719 14.163125 1.44335938 13.28125 C1.21843598 8.78278208 0.86459117 4.43193793 0 0 Z " fill="#32A5CA" transform="translate(875,308)"/>
<path d="M0 0 C1.39035371 4.17106112 -0.09769194 7.18206859 -1.4375 11.1875 C-1.68048828 11.93708984 -1.92347656 12.68667969 -2.17382812 13.45898438 C-2.77465056 15.30857501 -3.38629678 17.15464327 -4 19 C-4.66 18.34 -5.32 17.68 -6 17 C-3.42553191 3.42553191 -3.42553191 3.42553191 0 0 Z " fill="#AFF4F0" transform="translate(754,317)"/>
<path d="M0 0 C0.66 0.33 1.32 0.66 2 1 C2.62669199 3.16467461 3.15427374 5.35864524 3.625 7.5625 C3.88539063 8.76003906 4.14578125 9.95757812 4.4140625 11.19140625 C4.60742188 12.11824219 4.80078125 13.04507812 5 14 C4.01 14.33 3.02 14.66 2 15 C-1.54076539 5.32612313 -1.54076539 5.32612313 -1 1 C-0.67 0.67 -0.34 0.34 0 0 Z " fill="#2E869C" transform="translate(784,353)"/>
<path d="M0 0 C0.99 0.33 1.98 0.66 3 1 C2.09507812 1.79664063 2.09507812 1.79664063 1.171875 2.609375 C-1.31701999 5.34895006 -2.40536712 7.81371598 -3.75 11.25 C-4.17796875 12.32765625 -4.6059375 13.4053125 -5.046875 14.515625 C-5.36140625 15.33546875 -5.6759375 16.1553125 -6 17 C-6.66 16.34 -7.32 15.68 -8 15 C-6.31910452 8.85038239 -4.40439414 4.6424695 0 0 Z " fill="#ACF4F8" transform="translate(814,334)"/>
<path d="M0 0 C2.475 0.99 2.475 0.99 5 2 C4.319375 3.0828125 4.319375 3.0828125 3.625 4.1875 C2.14505642 6.74894081 1.02782461 9.23277989 0 12 C-2 9 -2 9 -1.7578125 6.73828125 C-1.44457031 5.53751953 -1.44457031 5.53751953 -1.125 4.3125 C-0.92132812 3.50425781 -0.71765625 2.69601562 -0.5078125 1.86328125 C-0.34023438 1.24839844 -0.17265625 0.63351562 0 0 Z " fill="#337E90" transform="translate(763,399)"/>
<path d="M0 0 C0.33 0 0.66 0 1 0 C1.33 6.93 1.66 13.86 2 21 C1.01 20.67 0.02 20.34 -1 20 C-1.02689449 17.04160645 -1.04678741 14.08345573 -1.0625 11.125 C-1.07087891 10.28324219 -1.07925781 9.44148438 -1.08789062 8.57421875 C-1.09111328 7.76855469 -1.09433594 6.96289062 -1.09765625 6.1328125 C-1.10289307 5.38918457 -1.10812988 4.64555664 -1.11352539 3.87939453 C-1 2 -1 2 0 0 Z " fill="#C3F3D3" transform="translate(479,330)"/>
<path d="M0 0 C8.58 0 17.16 0 26 0 C20.77093838 3.48604108 17.06272342 2.97785862 11 2 C7.33653374 1.62920382 3.66891715 1.31182479 0 1 C0 0.67 0 0.34 0 0 Z " fill="#2087A7" transform="translate(819,334)"/>
<path d="M0 0 C-1.12685023 3.38055068 -2.05384625 4.1079382 -4.75 6.3125 C-8.28291763 9.29895915 -11.15760943 12.35818708 -14 16 C-14.66 15.34 -15.32 14.68 -16 14 C-13.71643754 11.65861457 -11.42186626 9.32833018 -9.125 7 C-8.47402344 6.33226562 -7.82304688 5.66453125 -7.15234375 4.9765625 C-6.52714844 4.34492188 -5.90195312 3.71328125 -5.2578125 3.0625 C-4.6817627 2.47597656 -4.10571289 1.88945312 -3.51220703 1.28515625 C-2 0 -2 0 0 0 Z " fill="#B3F2FA" transform="translate(801,497)"/>
<path d="M0 0 C0 0.66 0 1.32 0 2 C-1.6796875 3.65625 -1.6796875 3.65625 -3.875 5.5 C-5.99035504 7.28933258 -8.04019124 9.04019124 -10 11 C-10.99 10.67 -11.98 10.34 -13 10 C-11.40517782 8.32438946 -9.79883156 6.65974066 -8.1875 5 C-7.29417969 4.071875 -6.40085937 3.14375 -5.48046875 2.1875 C-3 0 -3 0 0 0 Z " fill="#3B8990" transform="translate(716,260)"/>
<path d="M0 0 C7.26 0.33 14.52 0.66 22 1 C18.84685215 3.10209857 18.13896919 3.2434761 14.55078125 3.1953125 C13.27944336 3.18564453 13.27944336 3.18564453 11.98242188 3.17578125 C11.10134766 3.15902344 10.22027344 3.14226562 9.3125 3.125 C8.41982422 3.11597656 7.52714844 3.10695313 6.60742188 3.09765625 C4.40467686 3.07409748 2.20247412 3.04120329 0 3 C0 2.01 0 1.02 0 0 Z " fill="#C8FAD9" transform="translate(559,433)"/>
<path d="M0 0 C-1 2 -1 2 -2.890625 2.81640625 C-6.90241296 4.08503456 -10.83476665 5.32818817 -15 6 C-15.33 5.34 -15.66 4.68 -16 4 C-14.274773 3.32320342 -12.54461061 2.65898 -10.8125 2 C-9.84957031 1.62875 -8.88664063 1.2575 -7.89453125 0.875 C-5.07817642 0.02363228 -2.91835561 -0.17072647 0 0 Z " fill="#1F6036" transform="translate(595,394)"/>
<path d="M0 0 C0.66 0 1.32 0 2 0 C2.53154742 1.60064843 3.04988353 3.20568874 3.5625 4.8125 C3.85253906 5.70582031 4.14257812 6.59914063 4.44140625 7.51953125 C5 10 5 10 4 13 C3.34 13 2.68 13 2 13 C1.47212358 11.02270019 0.95287097 9.04309608 0.4375 7.0625 C0.00244141 5.40927734 0.00244141 5.40927734 -0.44140625 3.72265625 C-0.62574219 2.82417969 -0.81007813 1.92570312 -1 1 C-0.67 0.67 -0.34 0.34 0 0 Z " fill="#2D849B" transform="translate(789,372)"/>
<path d="M0 0 C1.98 0.99 1.98 0.99 4 2 C4.5390625 4.12890625 4.5390625 4.12890625 4.625 6.5625 C4.68524737 8.93592047 4.68524737 8.93592047 5 11 C5.66 11.33 6.32 11.66 7 12 C6.67 13.65 6.34 15.3 6 17 C5.34 17 4.68 17 4 17 C2.68 11.39 1.36 5.78 0 0 Z " fill="#A3EEF5" transform="translate(800,340)"/>
<path d="M0 0 C0.66 0.99 1.32 1.98 2 3 C1.3203125 6.13671875 1.3203125 6.13671875 0.125 9.6875 C-0.26429688 10.86699219 -0.65359375 12.04648437 -1.0546875 13.26171875 C-1.36664062 14.16535156 -1.67859375 15.06898438 -2 16 C-2.66 15.67 -3.32 15.34 -4 15 C-2.9318153 9.88634986 -1.76892524 4.92772031 0 0 Z " fill="#30808E" transform="translate(768,336)"/>
<path d="M0 0 C2 3 2 3 2 6 C3.98 5.67 5.96 5.34 8 5 C7 7 7 7 5.15234375 7.6328125 C4.05599609 7.87644531 4.05599609 7.87644531 2.9375 8.125 C2.20402344 8.29257812 1.47054687 8.46015625 0.71484375 8.6328125 C0.14894531 8.75398437 -0.41695312 8.87515625 -1 9 C-1.125 2.25 -1.125 2.25 0 0 Z " fill="#216178" transform="translate(703,551)"/>
<path d="M0 0 C-1.76537096 1.17491582 -3.53749713 2.33968684 -5.3125 3.5 C-6.29863281 4.1496875 -7.28476562 4.799375 -8.30078125 5.46875 C-11 7 -11 7 -14 7 C-12.72450717 3.1735215 -11.52992688 2.80418485 -8 1 C-2.3956044 -1.1978022 -2.3956044 -1.1978022 0 0 Z " fill="#195E7A" transform="translate(750,538)"/>
<path d="M0 0 C3.48872415 1.16290805 4.09976864 2.13967609 6.1875 5.0625 C6.71730469 5.79597656 7.24710938 6.52945312 7.79296875 7.28515625 C8.19128906 7.85105469 8.58960938 8.41695313 9 9 C9.66 8.01 10.32 7.02 11 6 C11.99 6.33 12.98 6.66 14 7 C12.68 8.65 11.36 10.3 10 12 C6.05124418 10.68374806 5.45007287 8.94634602 3.3125 5.4375 C2.68988281 4.42558594 2.06726563 3.41367187 1.42578125 2.37109375 C0.95527344 1.58863281 0.48476563 0.80617188 0 0 Z " fill="#518760" transform="translate(649,295)"/>
<path d="M0 0 C-1.40844718 3.21524305 -3.10344786 5.32183868 -5.625 7.75 C-6.57246094 8.67039062 -6.57246094 8.67039062 -7.5390625 9.609375 C-8.02117188 10.06828125 -8.50328125 10.5271875 -9 11 C-9.66 10.34 -10.32 9.68 -11 9 C-4.25 0 -4.25 0 0 0 Z " fill="#358694" transform="translate(741,281)"/>
<path d="M0 0 C1.32 0.66 2.64 1.32 4 2 C3.01 4.31 2.02 6.62 1 9 C0.34 9 -0.32 9 -1 9 C-1 9.66 -1 10.32 -1 11 C-1.66 11 -2.32 11 -3 11 C-2.01 7.37 -1.02 3.74 0 0 Z " fill="#2A7793" transform="translate(757,419)"/>
<path d="M0 0 C1.55403686 2.93163286 2.69801632 5.83365224 3.6875 9 C3.95949219 9.845625 4.23148438 10.69125 4.51171875 11.5625 C5.02468085 14.1232068 4.84216387 15.55828998 4 18 C2 15 2 15 1.5 11.4375 C1.34152243 7.9428808 1.34152243 7.9428808 -1 6 C-0.625 2.875 -0.625 2.875 0 0 Z " fill="#A5EAEF" transform="translate(780,347)"/>
<path d="M0 0 C3.68006822 3.38168431 5.9785845 6.42521756 8 11 C6.35 11 4.7 11 3 11 C2.01 7.37 1.02 3.74 0 0 Z " fill="#326E50" transform="translate(667,406)"/>
<path d="M0 0 C1 2 1 2 0.546875 4.05859375 C0.28390625 4.84363281 0.0209375 5.62867188 -0.25 6.4375 C-0.62898437 7.61119141 -0.62898437 7.61119141 -1.015625 8.80859375 C-2.05390541 11.1200037 -3.11589363 12.33726383 -5 14 C-5.556875 14.556875 -6.11375 15.11375 -6.6875 15.6875 C-7.120625 16.120625 -7.55375 16.55375 -8 17 C-6.3341708 10.83643195 -3.12194714 5.51740344 0 0 Z " fill="#2A9DC7" transform="translate(902,379)"/>
<path d="M0 0 C5.30646986 4.32379026 8.60332697 11.36964011 10 18 C7.06277008 15.39716241 5.28367414 12.37207149 3.3125 9 C2.68988281 7.948125 2.06726563 6.89625 1.42578125 5.8125 C0 3 0 3 0 0 Z " fill="#2F7570" transform="translate(700,378)"/>
<path d="M0 0 C1.5 1.3125 1.5 1.3125 3 3 C3 3.99 3 4.98 3 6 C2.01 6 1.02 6 0 6 C-0.28875 6.969375 -0.5775 7.93875 -0.875 8.9375 C-2 12 -2 12 -4 13 C-3.52343588 11.20763933 -3.04366502 9.41613103 -2.5625 7.625 C-2.29566406 6.62726563 -2.02882813 5.62953125 -1.75390625 4.6015625 C-1 2 -1 2 0 0 Z " fill="#A0E8ED" transform="translate(773,328)"/>
<path d="M0 0 C-3.3 2.64 -6.6 5.28 -10 8 C-10.33 7.34 -10.66 6.68 -11 6 C-4.97191011 -1.65730337 -4.97191011 -1.65730337 0 0 Z " fill="#B3F2F7" transform="translate(752,495)"/>
<path d="M0 0 C-1.41166886 0.98635837 -2.82956184 1.96381255 -4.25 2.9375 C-5.43335938 3.75541016 -5.43335938 3.75541016 -6.640625 4.58984375 C-8.82636993 5.89622441 -10.5153801 6.54980511 -13 7 C-13.33 6.34 -13.66 5.68 -14 5 C-12.23628182 3.96692229 -10.46374967 2.94887951 -8.6875 1.9375 C-7.70136719 1.36902344 -6.71523438 0.80054688 -5.69921875 0.21484375 C-3 -1 -3 -1 0 0 Z " fill="#2885A4" transform="translate(846,402)"/>
<path d="M0 0 C0.66 0.33 1.32 0.66 2 1 C-2.95 7.435 -2.95 7.435 -8 14 C-8.33 13.34 -8.66 12.68 -9 12 C-8.67 11.01 -8.34 10.02 -8 9 C-7.34 8.67 -6.68 8.34 -6 8 C-4.9935725 6.33720673 -3.99414593 4.67016516 -3 3 C-1.3125 1.1875 -1.3125 1.1875 0 0 Z " fill="#B5EFD4" transform="translate(658,325)"/>
<path d="M0 0 C0.66 0.33 1.32 0.66 2 1 C-2.95 7.93 -2.95 7.93 -8 15 C-8.33 14.01 -8.66 13.02 -9 12 C-7.85546875 9.73828125 -7.85546875 9.73828125 -6.1875 7.3125 C-5.64480469 6.50425781 -5.10210938 5.69601562 -4.54296875 4.86328125 C-4.03378906 4.24839844 -3.52460937 3.63351562 -3 3 C-2.34 3 -1.68 3 -1 3 C-0.67 2.01 -0.34 1.02 0 0 Z " fill="#B3EEDC" transform="translate(677,299)"/>
<path d="M0 0 C5.28 0 10.56 0 16 0 C16 0.99 16 1.98 16 3 C10.72 2.34 5.44 1.68 0 1 C0 0.67 0 0.34 0 0 Z " fill="#96EAF3" transform="translate(815,221)"/>
<path d="M0 0 C5.94 0 11.88 0 18 0 C17.67 0.66 17.34 1.32 17 2 C15.96359375 1.97679687 14.9271875 1.95359375 13.859375 1.9296875 C12.48959056 1.91092333 11.1197983 1.89272382 9.75 1.875 C8.72712891 1.84986328 8.72712891 1.84986328 7.68359375 1.82421875 C3.9391765 1.78786518 1.17647273 1.92055651 -2 4 C-1.34 2.68 -0.68 1.36 0 0 Z " fill="#96E6F3" transform="translate(830,353)"/>
<path d="M0 0 C2.91691525 -0.05401695 5.83282724 -0.09368066 8.75 -0.125 C9.575 -0.14175781 10.4 -0.15851563 11.25 -0.17578125 C12.04921875 -0.18222656 12.8484375 -0.18867188 13.671875 -0.1953125 C14.4050293 -0.20578613 15.13818359 -0.21625977 15.89355469 -0.22705078 C18.29896076 0.03222456 19.91251494 0.80774075 22 2 C20.35 2.66 18.7 3.32 17 4 C16.67 3.34 16.34 2.68 16 2 C13.28553021 1.68758545 10.66090639 1.48663408 7.9375 1.375 C6.79958008 1.31699219 6.79958008 1.31699219 5.63867188 1.2578125 C3.75952805 1.16326438 1.87979664 1.08053244 0 1 C0 0.67 0 0.34 0 0 Z " fill="#91E1EF" transform="translate(794,255)"/>
<path d="M0 0 C-1.36030481 1.95543816 -2.52000266 2.88076499 -4.83984375 3.45703125 C-8.541789 3.97406271 -11.38040035 4.06887506 -15 3 C-13.44033782 2.491217 -11.87710759 1.99336531 -10.3125 1.5 C-9.44238281 1.2215625 -8.57226562 0.943125 -7.67578125 0.65625 C-5.00608323 0.00149195 -2.73603316 -0.11831495 0 0 Z " fill="#B4F7FB" transform="translate(835,444)"/>
<path d="M0 0 C0.66 0 1.32 0 2 0 C2.99 3.96 3.98 7.92 5 12 C4.01 11.67 3.02 11.34 2 11 C0.875 8.1875 0.875 8.1875 0 5 C-0.226875 4.236875 -0.45375 3.47375 -0.6875 2.6875 C-0.790625 2.130625 -0.89375 1.57375 -1 1 C-0.67 0.67 -0.34 0.34 0 0 Z " fill="#BAE9CB" transform="translate(482,363)"/>
<path d="M0 0 C0.99 0.495 0.99 0.495 2 1 C2 1.66 2 2.32 2 3 C2.66 3 3.32 3 4 3 C6.12508244 6.18762365 6.5020163 8.26512223 7 12 C6.01 12.495 6.01 12.495 5 13 C4.16209211 11.21046815 3.32980604 9.41830305 2.5 7.625 C1.80390625 6.12839844 1.80390625 6.12839844 1.09375 4.6015625 C0 2 0 2 0 0 Z " fill="#AAF8FC" transform="translate(899,278)"/>
<path d="M0 0 C0.66 0.33 1.32 0.66 2 1 C2.4140625 3.06640625 2.4140625 3.06640625 2.625 5.5625 C2.69976562 6.38878906 2.77453125 7.21507812 2.8515625 8.06640625 C2.92503906 9.02353516 2.92503906 9.02353516 3 10 C2.01 10 1.02 10 0 10 C-1.125 2.25 -1.125 2.25 0 0 Z " fill="#BAE9CB" transform="translate(480,352)"/>
<path d="M0 0 C0.66 0 1.32 0 2 0 C1.91291331 1.45945288 1.80473093 2.91765868 1.6875 4.375 C1.62949219 5.18710937 1.57148437 5.99921875 1.51171875 6.8359375 C1 9 1 9 -2 11 C-2.25 3.375 -2.25 3.375 0 0 Z " fill="#BAF6F4" transform="translate(770,340)"/>
<path d="M0 0 C0.99 0.33 1.98 0.66 3 1 C1.8758824 2.29243468 0.75067408 3.58392075 -0.375 4.875 C-1.00148438 5.59429687 -1.62796875 6.31359375 -2.2734375 7.0546875 C-3.47426834 8.4076598 -4.7208345 9.7208345 -6 11 C-5.62671065 5.64951939 -4.0042343 3.49087093 0 0 Z " fill="#5A9167" transform="translate(675,282)"/>
<path d="M0 0 C0.99 0.33 1.98 0.66 3 1 C0.69 3.97 -1.62 6.94 -4 10 C-4.66 9.34 -5.32 8.68 -6 8 C-4.02 5.36 -2.04 2.72 0 0 Z " fill="#2C6C43" transform="translate(506,262)"/>
<path d="M0 0 C0 3 0 3 -2 6 C-4.62356462 6.98515378 -7.24524123 7.42238929 -10 8 C-6.97727468 4.74475735 -3.74281699 2.38179263 0 0 Z " fill="#B4F1CF" transform="translate(629,412)"/>
<path d="M0 0 C0.33 0 0.66 0 1 0 C1.36263859 5.8022175 0.25684543 9.63999211 -2 15 C-2.33 15 -2.66 15 -3 15 C-3 12.36 -3 9.72 -3 7 C-2.34 7 -1.68 7 -1 7 C-0.67 4.69 -0.34 2.38 0 0 Z " fill="#B6F9FB" transform="translate(913,352)"/>
<path d="M0 0 C0.99 0.33 1.98 0.66 3 1 C0.0094833 4.33557632 -2.93184627 6.15083921 -7 8 C-6.67 6.68 -6.34 5.36 -6 4 C-4.35 3.67 -2.7 3.34 -1 3 C-0.67 2.01 -0.34 1.02 0 0 Z " fill="#226985" transform="translate(757,530)"/>
<path d="M0 0 C0.66 0.33 1.32 0.66 2 1 C0.73548068 2.31858428 -0.53685475 3.62967631 -1.8125 4.9375 C-2.52019531 5.66839844 -3.22789062 6.39929688 -3.95703125 7.15234375 C-6 9 -6 9 -9 10 C-7.61811547 6.78956118 -6.07578097 4.95063635 -3.375 2.75 C-2.74335937 2.22921875 -2.11171875 1.7084375 -1.4609375 1.171875 C-0.73777344 0.59179688 -0.73777344 0.59179688 0 0 Z " fill="#27643E" transform="translate(616,377)"/>
<path d="M0 0 C0.66 0.33 1.32 0.66 2 1 C-1.96 6.94 -1.96 6.94 -6 13 C-6.33 12.01 -6.66 11.02 -7 10 C-5.56640625 7.51953125 -5.56640625 7.51953125 -3.5625 4.8125 C-2.90378906 3.91144531 -2.24507812 3.01039063 -1.56640625 2.08203125 C-1.04949219 1.39496094 -0.53257812 0.70789063 0 0 Z " fill="#B0EFE2" transform="translate(702,343)"/>
<path d="M0 0 C4.56454251 0.54339792 7.9728176 1.79463821 12 4 C10.125 5.0625 10.125 5.0625 8 6 C7.34 5.67 6.68 5.34 6 5 C6 4.34 6 3.68 6 3 C5.01 3 4.02 3 3 3 C3 2.34 3 1.68 3 1 C2.01 0.67 1.02 0.34 0 0 Z " fill="#699F71" transform="translate(614,228)"/>
<path d="M0 0 C-3.83704776 2.55803184 -7.75712791 4.34505724 -12.4375 3.625 C-12.953125 3.41875 -13.46875 3.2125 -14 3 C-9.2903051 -0.1397966 -5.55597581 -1.63411053 0 0 Z " fill="#B5F9FC" transform="translate(780,222)"/>
<path d="M0 0 C2.97 0.495 2.97 0.495 6 1 C6.33 1.99 6.66 2.98 7 4 C7.99 4.66 8.98 5.32 10 6 C9.67 6.66 9.34 7.32 9 8 C7.49712782 6.85793642 5.99776716 5.71125043 4.5 4.5625 C3.6646875 3.92441406 2.829375 3.28632812 1.96875 2.62890625 C1.3190625 2.09136719 0.669375 1.55382812 0 1 C0 0.67 0 0.34 0 0 Z " fill="#2C6943" transform="translate(621,522)"/>
<path d="M0 0 C0 0.66 0 1.32 0 2 C-6.625 3.25 -6.625 3.25 -10 1 C-6.1496895 -1.56687367 -4.41430237 -0.83288724 0 0 Z " fill="#34879A" transform="translate(809,398)"/>
<path d="M0 0 C0.66 0.66 1.32 1.32 2 2 C1.26708288 3.1774734 0.51296199 4.34176854 -0.25 5.5 C-0.66765625 6.1496875 -1.0853125 6.799375 -1.515625 7.46875 C-2.00546875 7.9740625 -2.4953125 8.479375 -3 9 C-4.32 9 -5.64 9 -7 9 C-7 8.34 -7 7.68 -7 7 C-6.21625 6.54625 -5.4325 6.0925 -4.625 5.625 C-1.8764051 3.92348887 -1.12078968 2.95480916 0 0 Z " fill="#ACF2F7" transform="translate(814,393)"/>
<path d="M0 0 C0.66 0 1.32 0 2 0 C1.01 2.97 0.02 5.94 -1 9 C-1.66 8.34 -2.32 7.68 -3 7 C-2.67028521 3.70285207 -2.3773161 2.3773161 0 0 Z " fill="#BDF0CC" transform="translate(490,283)"/>
<path d="M0 0 C0.66 0.33 1.32 0.66 2 1 C-0.97 4.3 -3.94 7.6 -7 11 C-7.33 10.01 -7.66 9.02 -8 8 C-7.38125 7.7525 -6.7625 7.505 -6.125 7.25 C-3.61104784 5.77120461 -3.1465949 4.62078835 -2 2 C-1.34 1.34 -0.68 0.68 0 0 Z " fill="#B2F1ED" transform="translate(706,265)"/>
<path d="M0 0 C0.33 0.66 0.66 1.32 1 2 C-0.79008467 2.22151549 -2.58218162 2.42682213 -4.375 2.625 C-5.37273438 2.74101562 -6.37046875 2.85703125 -7.3984375 2.9765625 C-8.25695312 2.98429688 -9.11546875 2.99203125 -10 3 C-10.66 2.34 -11.32 1.68 -12 1 C-8.0186217 -0.3271261 -4.14954773 -0.06915913 0 0 Z " fill="#4A8258" transform="translate(573,227)"/>
<path d="M0 0 C-2.125 2.0625 -2.125 2.0625 -5 4 C-8.3125 3.75 -8.3125 3.75 -11 3 C-3.71428571 -1.85714286 -3.71428571 -1.85714286 0 0 Z " fill="#A3E8F1" transform="translate(844,441)"/>
<path d="M0 0 C-1.35021826 4.41889613 -3.26115668 6.34345343 -7 9 C-4.4 0 -4.4 0 0 0 Z " fill="#A2F3FA" transform="translate(864,380)"/>
<path d="M0 0 C0.66 0 1.32 0 2 0 C3.25390625 1.64453125 3.25390625 1.64453125 4.5625 3.8125 C4.99691406 4.52019531 5.43132813 5.22789062 5.87890625 5.95703125 C7 8 7 8 8 11 C7.01 11.495 7.01 11.495 6 12 C4.02 8.04 2.04 4.08 0 0 Z " fill="#A6EBE3" transform="translate(713,333)"/>
<path d="M0 0 C1.96301592 3.50538557 2.95902388 7.13351728 4 11 C3.01 11 2.02 11 1 11 C0.855625 10.2575 0.71125 9.515 0.5625 8.75 C0.05253619 6.07834232 0.05253619 6.07834232 -0.625 3.8125 C-1 2 -1 2 0 0 Z " fill="#358DA0" transform="translate(792,317)"/>
<path d="M0 0 C2 2 2 2 2.3125 4.375 C1.94914998 7.42714016 1.01544839 8.73262056 -1 11 C-1.0270043 9.54176788 -1.04639787 8.08339325 -1.0625 6.625 C-1.07410156 5.81289063 -1.08570313 5.00078125 -1.09765625 4.1640625 C-1 2 -1 2 0 0 Z " fill="#1C5D35" transform="translate(483,310)"/>
<path d="M0 0 C0.99 0.33 1.98 0.66 3 1 C1.35 2.98 -0.3 4.96 -2 7 C-2.66 6.34 -3.32 5.68 -4 5 C-2.68 3.35 -1.36 1.7 0 0 Z " fill="#38807A" transform="translate(685,291)"/>
<path d="M0 0 C0 0.99 0 1.98 0 3 C-3.76624671 4.25541557 -5.37188934 3.37061958 -9 2 C-5.5647952 -0.29013653 -4.014669 -0.17842973 0 0 Z " fill="#BFEBCD" transform="translate(579,260)"/>
<path d="M0 0 C0.66 0.66 1.32 1.32 2 2 C-2.455 4.97 -2.455 4.97 -7 8 C-7 7.01 -7 6.02 -7 5 C-5.46875 3.61328125 -5.46875 3.61328125 -3.5 2.3125 C-2.8503125 1.87550781 -2.200625 1.43851562 -1.53125 0.98828125 C-1.0259375 0.66214844 -0.520625 0.33601563 0 0 Z " fill="#A9EBF2" transform="translate(737,503)"/>
<path d="M0 0 C0.66 1.32 1.32 2.64 2 4 C0.02 4.99 -1.96 5.98 -4 7 C-4 4 -4 4 -2 1.8125 C-1.34 1.214375 -0.68 0.61625 0 0 Z " fill="#3496B8" transform="translate(857,389)"/>
<path d="M0 0 C0.66 0.66 1.32 1.32 2 2 C1.34 3.98 0.68 5.96 0 8 C-0.99 7.67 -1.98 7.34 -3 7 C-3 5.68 -3 4.36 -3 3 C-2.34 3 -1.68 3 -1 3 C-0.67 2.01 -0.34 1.02 0 0 Z " fill="#2986A2" transform="translate(816,382)"/>
<path d="M0 0 C0.66 0 1.32 0 2 0 C0.64978174 4.41889613 -1.26115668 6.34345343 -5 9 C-4.42676569 5.13066838 -2.61046448 2.84777943 0 0 Z " fill="#278DAE" transform="translate(863,382)"/>
<path d="M0 0 C2 1.5 2 1.5 4 4 C4.35800135 6.75871627 4.18660165 9.20097524 4 12 C1.57869669 9.57869669 1.47159496 8.19888623 0.875 4.875 C0.70742188 3.96492188 0.53984375 3.05484375 0.3671875 2.1171875 C0.24601563 1.41851562 0.12484375 0.71984375 0 0 Z " fill="#A3ECF1" transform="translate(796,327)"/>
<path d="M0 0 C0.33 0.66 0.66 1.32 1 2 C-0.98 4.97 -0.98 4.97 -3 8 C-3.66 6.68 -4.32 5.36 -5 4 C-4.34 4 -3.68 4 -3 4 C-2.67 3.01 -2.34 2.02 -2 1 C-1.34 0.67 -0.68 0.34 0 0 Z " fill="#237695" transform="translate(818,469)"/>
<path d="M0 0 C0.763125 0.0825 1.52625 0.165 2.3125 0.25 C0.3325 2.56 -1.6475 4.87 -3.6875 7.25 C-4.3475 6.26 -5.0075 5.27 -5.6875 4.25 C-3.34903846 0.31153846 -3.34903846 0.31153846 0 0 Z " fill="#20728F" transform="translate(787.6875,458.75)"/>
<path d="M0 0 C4.29 0.99 8.58 1.98 13 3 C9 5 9 5 6.640625 4.5390625 C5.85171875 4.23742187 5.0628125 3.93578125 4.25 3.625 C3.45078125 3.32851563 2.6515625 3.03203125 1.828125 2.7265625 C1.22484375 2.48679687 0.6215625 2.24703125 0 2 C0 1.34 0 0.68 0 0 Z " fill="#B9F0CC" transform="translate(545,430)"/>
<path d="M0 0 C-1 2 -1 2 -3.9375 3.0625 C-4.948125 3.371875 -5.95875 3.68125 -7 4 C-7.99 4.495 -7.99 4.495 -9 5 C-9 3.68 -9 2.36 -9 1 C-3.375 -1.125 -3.375 -1.125 0 0 Z " fill="#2B88A9" transform="translate(832,409)"/>
<path d="M0 0 C3 2 3 2 3.625 4.875 C3.74875 5.90625 3.8725 6.9375 4 8 C4.31674575 9.33737094 4.64270064 10.67288808 5 12 C4.34 12 3.68 12 3 12 C2.49440092 10.56445975 1.9957251 9.1264798 1.5 7.6875 C1.2215625 6.88699219 0.943125 6.08648437 0.65625 5.26171875 C0 3 0 3 0 0 Z " fill="#A5EEF3" transform="translate(792,314)"/>
<path d="M0 0 C0.99 0.33 1.98 0.66 3 1 C1.35 3.64 -0.3 6.28 -2 9 C-3 5 -3 5 -2 2 C-1.34 2 -0.68 2 0 2 C0 1.34 0 0.68 0 0 Z " fill="#2C6C42" transform="translate(529,286)"/>
<path d="M0 0 C0 0.33 0 0.66 0 1 C-4.40914783 2.10228696 -8.48382401 2.07654536 -13 2 C-8.17638048 -0.49497561 -5.39223163 -1.07844633 0 0 Z " fill="#346E42" transform="translate(589,257)"/>
<path d="M0 0 C0.99 0.33 1.98 0.66 3 1 C-2.445 3.475 -2.445 3.475 -8 6 C-7.67 4.68 -7.34 3.36 -7 2 C-6.21625 1.855625 -5.4325 1.71125 -4.625 1.5625 C-2.03578982 1.12201075 -2.03578982 1.12201075 0 0 Z " fill="#266981" transform="translate(734,545)"/>
<path d="M0 0 C0.66 0 1.32 0 2 0 C2 0.66 2 1.32 2 2 C3.32 2.33 4.64 2.66 6 3 C6 4.32 6 5.64 6 7 C1.125 3.375 1.125 3.375 0 0 Z " fill="#35744D" transform="translate(596,499)"/>
<path d="M0 0 C0.66 0.33 1.32 0.66 2 1 C-0.97 4.96 -0.97 4.96 -4 9 C-4.33 8.01 -4.66 7.02 -5 6 C-3.59554165 3.7363436 -1.8032087 1.9791315 0 0 Z " fill="#AEEEE4" transform="translate(709,334)"/>
<path d="M0 0 C0.99 0.99 1.98 1.98 3 3 C2.67 3.66 2.34 4.32 2 5 C1.34 5 0.68 5 0 5 C-1.33783393 5.31478446 -2.67203709 5.64587656 -4 6 C-2.68 4.02 -1.36 2.04 0 0 Z " fill="#2A7370" transform="translate(712,333)"/>
<path d="M0 0 C0 3.39593478 -0.52165948 4.06619881 -2.5 6.6875 C-2.9640625 7.31011719 -3.428125 7.93273437 -3.90625 8.57421875 C-4.2671875 9.04472656 -4.628125 9.51523437 -5 10 C-6 7 -6 7 -4.75 4.4375 C-3 2 -3 2 0 0 Z " fill="#BCF6E8" transform="translate(685,289)"/>
<path d="M0 0 C-4.455 2.97 -4.455 2.97 -9 6 C-7 1 -7 1 -5.0625 -0.375 C-3 -1 -3 -1 0 0 Z " fill="#B4F5F7" transform="translate(734,244)"/>
<path d="M0 0 C4.43090471 1.20842856 6.98112756 2.51668565 10 6 C6.68437443 5.44739574 3.84937793 4.83174295 1 3 C0.67 2.01 0.34 1.02 0 0 Z " fill="#598E5F" transform="translate(637,238)"/>
<path d="M0 0 C-0.33 0.99 -0.66 1.98 -1 3 C-3.375 3.625 -3.375 3.625 -6 4 C-6.66 3.34 -7.32 2.68 -8 2 C-5.09399739 0.74335022 -3.20395416 0 0 0 Z " fill="#1E637F" transform="translate(718,518)"/>
<path d="M0 0 C0.66 0.99 1.32 1.98 2 3 C0.71034824 4.37562854 -0.62689293 5.70766393 -2 7 C-2.66 7 -3.32 7 -4 7 C-2.79618552 4.50638429 -1.54571278 2.31856917 0 0 Z " fill="#2A7E9D" transform="translate(812,476)"/>
<path d="M0 0 C1.32 0 2.64 0 4 0 C4.33 2.97 4.66 5.94 5 9 C2.67527795 6.14693203 1.2491742 3.45925163 0 0 Z " fill="#2A6A45" transform="translate(559,447)"/>
<path d="M0 0 C0.66 0 1.32 0 2 0 C0.71480435 2.86697492 -0.57129254 4.97607712 -3 7 C-3.66 7 -4.32 7 -5 7 C-4.67 6.01 -4.34 5.02 -4 4 C-3.34 4 -2.68 4 -2 4 C-1.34 2.68 -0.68 1.36 0 0 Z " fill="#2F6E4B" transform="translate(648,392)"/>
<path d="M0 0 C0.66 0.33 1.32 0.66 2 1 C-3.75 6 -3.75 6 -6 6 C-5 3 -5 3 -2.5625 1.25 C-1.716875 0.8375 -0.87125 0.425 0 0 Z " fill="#165B77" transform="translate(735,507)"/>
<path d="M0 0 C0.33 0.99 0.66 1.98 1 3 C-0.65 4.32 -2.3 5.64 -4 7 C-4.66 6.67 -5.32 6.34 -6 6 C-4.02 4.02 -2.04 2.04 0 0 Z " fill="#25708E" transform="translate(775,472)"/>
<path d="M0 0 C0.66 0.33 1.32 0.66 2 1 C1.34 3.97 0.68 6.94 0 10 C-2 6 -2 6 -1.125 2.75 C-0.75375 1.8425 -0.3825 0.935 0 0 Z " fill="#B4F3F9" transform="translate(754,421)"/>
<path d="M0 0 C0.33 0 0.66 0 1 0 C1.625 2.8125 1.625 2.8125 2 6 C1.01 7.485 1.01 7.485 0 9 C-0.66 9 -1.32 9 -2 9 C-1.34 6.03 -0.68 3.06 0 0 Z " fill="#A5E6E8" transform="translate(748,406)"/>
<path d="M0 0 C0.66 0.66 1.32 1.32 2 2 C1.01 3.98 0.02 5.96 -1 8 C-1.66 7.01 -2.32 6.02 -3 5 C-2.67 4.01 -2.34 3.02 -2 2 C-1.34 2 -0.68 2 0 2 C0 1.34 0 0.68 0 0 Z " fill="#237595" transform="translate(764,403)"/>
<path d="M0 0 C1.9451 2.91765 2.45276317 4.62537285 3 8 C2.34 8 1.68 8 1 8 C0.01 6.02 -0.98 4.04 -2 2 C-1.34 2 -0.68 2 0 2 C0 1.34 0 0.68 0 0 Z " fill="#A6EBEE" transform="translate(785,365)"/>
<path d="M0 0 C1.25541557 3.76624671 0.37061958 5.37188934 -1 9 C-2.1875 7.3125 -2.1875 7.3125 -3 5 C-1.625 2.25 -1.625 2.25 0 0 Z " fill="#AEF1EB" transform="translate(745,345)"/>
<path d="M0 0 C1.5625 1.25 1.5625 1.25 3 3 C2.6875 5.1875 2.6875 5.1875 2 7 C1.34 7 0.68 7 0 7 C-0.38133299 5.0085944 -0.71325582 3.00720923 -1 1 C-0.67 0.67 -0.34 0.34 0 0 Z " fill="#358A9C" transform="translate(777,332)"/>
<path d="M0 0 C0.33 0.99 0.66 1.98 1 3 C-0.65 4.32 -2.3 5.64 -4 7 C-4.66 6.67 -5.32 6.34 -6 6 C-4.02 4.02 -2.04 2.04 0 0 Z " fill="#368080" transform="translate(700,274)"/>
<path d="M0 0 C-3.96 1.98 -3.96 1.98 -8 4 C-8.66 3.34 -9.32 2.68 -10 2 C-3.375 -1.125 -3.375 -1.125 0 0 Z " fill="#357045" transform="translate(561,265)"/>
<path d="M0 0 C-1.1875 1.5 -1.1875 1.5 -3 3 C-5.6875 3.1875 -5.6875 3.1875 -8 3 C-8 2.34 -8 1.68 -8 1 C-5.29120665 -0.35439668 -2.99066732 -0.06501451 0 0 Z " fill="#346E44" transform="translate(548,235)"/>
</svg>
